<svg width="24" height="24" viewBox="0 0 24 24" fill="none" xmlns="http://www.w3.org/2000/svg">
<path d="M12 3C7.0293 3 3 7.0293 3 12C3 16.9707 7.0293 21 12 21C16.9707 21 21 16.9707 21 12C21 7.0293 16.9707 3 12 3ZM12.9 17.4H11.1V15.6H12.9V17.4ZM12.9 13.6731V14.7H11.1V12.9C11.1 12.6613 11.1948 12.4324 11.3636 12.2636C11.5324 12.0948 11.7613 12 12 12C12.9927 12 13.8 11.1927 13.8 10.2C13.8 9.2073 12.9927 8.4 12 8.4C11.0073 8.4 10.2 9.2073 10.2 10.2H8.4C8.4 9.24522 8.77928 8.32955 9.45442 7.65442C10.1295 6.97928 11.0452 6.6 12 6.6C12.9548 6.6 13.8705 6.97928 14.5456 7.65442C15.2207 8.32955 15.6 9.24522 15.6 10.2C15.5986 10.9963 15.3326 11.7696 14.8439 12.3982C14.3552 13.0269 13.6714 13.4754 12.9 13.6731Z" fill="#D9EDEB"/>
</svg>
