<svg width="18" height="18" viewBox="0 0 18 18" fill="none" xmlns="http://www.w3.org/2000/svg">
<path fill-rule="evenodd" clip-rule="evenodd" d="M8.29292 0.292786C8.48045 0.105315 8.73475 0 8.99992 0C9.26508 0 9.51939 0.105315 9.70692 0.292786L15.7069 6.29279L17.7069 8.29279C17.8891 8.48139 17.9899 8.73399 17.9876 8.99619C17.9853 9.25838 17.8801 9.5092 17.6947 9.6946C17.5093 9.88001 17.2585 9.98518 16.9963 9.98746C16.7341 9.98974 16.4815 9.88894 16.2929 9.70679L15.9999 9.41379V15.9998C15.9999 16.5302 15.7892 17.0389 15.4141 17.414C15.0391 17.7891 14.5304 17.9998 13.9999 17.9998H10.9999C10.7347 17.9998 10.4803 17.8944 10.2928 17.7069C10.1053 17.5194 9.99992 17.265 9.99992 16.9998V13.9998H7.99992V16.9998C7.99992 17.265 7.89456 17.5194 7.70703 17.7069C7.51949 17.8944 7.26514 17.9998 6.99992 17.9998H3.99992C3.46949 17.9998 2.96078 17.7891 2.58571 17.414C2.21063 17.0389 1.99992 16.5302 1.99992 15.9998V9.41379L1.70692 9.70679C1.51832 9.88894 1.26571 9.98974 1.00352 9.98746C0.741321 9.98518 0.490508 9.88001 0.3051 9.6946C0.119692 9.5092 0.0145233 9.25838 0.0122448 8.99619C0.00996641 8.73399 0.110761 8.48139 0.292919 8.29279L2.29292 6.29279L8.29292 0.292786Z" fill="#D9EDEB"/>
</svg>
