<svg width="291" height="233" viewBox="0 0 291 233" fill="none" xmlns="http://www.w3.org/2000/svg">
<g clip-path="url(#clip0_20_207)">
<path d="M134.196 49.7064H62.4096C62.0571 49.7059 61.7192 49.5573 61.47 49.293C61.2208 49.0287 61.0806 48.6704 61.0802 48.2966V29.4124C61.0806 29.0386 61.2208 28.6803 61.47 28.416C61.7192 28.1517 62.0571 28.003 62.4096 28.0026H134.196C134.548 28.003 134.886 28.1517 135.135 28.416C135.384 28.6803 135.525 29.0386 135.525 29.4124V48.2966C135.525 48.6704 135.384 49.0287 135.135 49.293C134.886 49.5573 134.548 49.7059 134.196 49.7064ZM62.4096 28.5665C62.1981 28.5668 61.9954 28.656 61.8458 28.8145C61.6963 28.9731 61.6122 29.1881 61.6119 29.4124V48.2966C61.6122 48.5209 61.6963 48.7359 61.8458 48.8944C61.9954 49.053 62.1981 49.1422 62.4096 49.1425H134.196C134.407 49.1422 134.61 49.053 134.759 48.8944C134.909 48.7359 134.993 48.5209 134.993 48.2966V29.4124C134.993 29.1881 134.909 28.9731 134.759 28.8145C134.61 28.656 134.407 28.5668 134.196 28.5665L62.4096 28.5665Z" fill="#3F3D56"/>
<path d="M73.5636 43.8726C76.5543 43.8726 78.9787 41.3015 78.9787 38.1299C78.9787 34.9583 76.5543 32.3872 73.5636 32.3872C70.5729 32.3872 68.1484 34.9583 68.1484 38.1299C68.1484 41.3015 70.5729 43.8726 73.5636 43.8726Z" fill="#009281"/>
<path d="M86.07 34.3014C85.8306 34.3014 85.6011 34.4023 85.4318 34.5818C85.2626 34.7613 85.1675 35.0047 85.1675 35.2586C85.1675 35.5124 85.2626 35.7558 85.4318 35.9353C85.6011 36.1148 85.8306 36.2157 86.07 36.2157H128.618C128.857 36.2157 129.087 36.1148 129.256 35.9353C129.425 35.7558 129.52 35.5124 129.52 35.2586C129.52 35.0047 129.425 34.7613 129.256 34.5818C129.087 34.4023 128.857 34.3014 128.618 34.3014H86.07Z" fill="#E6E6E6"/>
<path d="M86.07 40.0442C85.8306 40.0442 85.6011 40.145 85.4318 40.3245C85.2626 40.504 85.1675 40.7474 85.1675 41.0013C85.1675 41.2551 85.2626 41.4986 85.4318 41.6781C85.6011 41.8576 85.8306 41.9584 86.07 41.9584H104.378C104.497 41.9586 104.615 41.934 104.724 41.886C104.834 41.838 104.934 41.7676 105.018 41.6787C105.102 41.5898 105.168 41.4842 105.214 41.368C105.259 41.2517 105.283 41.1271 105.283 41.0013C105.283 40.8754 105.259 40.7508 105.214 40.6346C105.168 40.5184 105.102 40.4128 105.018 40.3239C104.934 40.235 104.834 40.1645 104.724 40.1165C104.615 40.0685 104.497 40.0439 104.378 40.0442H86.07Z" fill="#E6E6E6"/>
<path d="M103.03 117.02H71.1254C70.7729 117.02 70.4351 116.871 70.1858 116.607C69.9366 116.342 69.7964 115.984 69.796 115.61V80.3725C69.7964 79.9987 69.9366 79.6404 70.1858 79.3761C70.4351 79.1118 70.7729 78.9631 71.1254 78.9627H103.03C103.383 78.9631 103.721 79.1118 103.97 79.3761C104.219 79.6404 104.359 79.9987 104.36 80.3725V115.61C104.359 115.984 104.219 116.342 103.97 116.607C103.721 116.871 103.383 117.02 103.03 117.02ZM71.1254 79.5266C70.9139 79.5268 70.7112 79.616 70.5616 79.7746C70.4121 79.9332 70.328 80.1482 70.3278 80.3725V115.61C70.328 115.834 70.4121 116.049 70.5616 116.208C70.7112 116.367 70.9139 116.456 71.1254 116.456H103.03C103.242 116.456 103.445 116.367 103.594 116.208C103.744 116.049 103.828 115.834 103.828 115.61V80.3725C103.828 80.1482 103.744 79.9332 103.594 79.7746C103.445 79.616 103.242 79.5268 103.03 79.5266H71.1254Z" fill="#3F3D56"/>
<path d="M77.9238 86.2293C77.6844 86.2293 77.4548 86.3302 77.2856 86.5097C77.1163 86.6892 77.0212 86.9326 77.0212 87.1865C77.0212 87.4403 77.1163 87.6837 77.2856 87.8632C77.4548 88.0427 77.6844 88.1436 77.9238 88.1436H96.2321C96.4715 88.1436 96.7011 88.0427 96.8703 87.8632C97.0396 87.6837 97.1347 87.4403 97.1347 87.1865C97.1347 86.9326 97.0396 86.6892 96.8703 86.5097C96.7011 86.3302 96.4715 86.2293 96.2321 86.2293H77.9238Z" fill="#E6E6E6"/>
<path d="M77.9237 91.8685C77.805 91.8682 77.6875 91.8928 77.5778 91.9408C77.4681 91.9888 77.3684 92.0593 77.2845 92.1482C77.2005 92.2371 77.1339 92.3427 77.0884 92.4589C77.0429 92.5752 77.0195 92.6997 77.0195 92.8256C77.0195 92.9514 77.0429 93.076 77.0884 93.1923C77.1339 93.3085 77.2005 93.4141 77.2845 93.503C77.3684 93.5919 77.4681 93.6624 77.5778 93.7104C77.6875 93.7584 77.805 93.7829 77.9237 93.7827H96.2321C96.4714 93.7827 96.701 93.6819 96.8702 93.5024C97.0395 93.3229 97.1346 93.0794 97.1346 92.8256C97.1346 92.5717 97.0395 92.3283 96.8702 92.1488C96.701 91.9693 96.4714 91.8685 96.2321 91.8685H77.9237Z" fill="#E6E6E6"/>
<path d="M87.0779 109.753C85.9544 109.753 84.856 109.4 83.9218 108.738C82.9875 108.076 82.2594 107.135 81.8294 106.034C81.3994 104.933 81.2869 103.722 81.5061 102.553C81.7253 101.385 82.2664 100.311 83.0609 99.4686C83.8554 98.6261 84.8677 98.0523 85.9697 97.8198C87.0717 97.5874 88.2139 97.7067 89.252 98.1627C90.29 98.6187 91.1773 99.3909 91.8015 100.382C92.4257 101.372 92.7589 102.537 92.7589 103.729C92.7572 105.326 92.1581 106.857 91.0931 107.987C90.0281 109.116 88.5841 109.752 87.0779 109.753Z" fill="#009281"/>
<path d="M155.296 0H187.201C187.553 0.000438882 187.891 0.14911 188.141 0.4134C188.39 0.677691 188.53 1.03602 188.53 1.40978V36.6475C188.53 37.0213 188.39 37.3796 188.141 37.6439C187.891 37.9082 187.553 38.0568 187.201 38.0573H155.296C154.944 38.0568 154.606 37.9082 154.356 37.6439C154.107 37.3796 153.967 37.0213 153.967 36.6475V1.40978C153.967 1.03602 154.107 0.677691 154.356 0.4134C154.606 0.14911 154.944 0.000438882 155.296 0ZM187.201 37.4934C187.413 37.4931 187.615 37.4039 187.765 37.2453C187.914 37.0868 187.998 36.8718 187.999 36.6475V1.40978C187.998 1.18552 187.914 0.970512 187.765 0.811933C187.615 0.653354 187.413 0.564158 187.201 0.563913H155.296C155.085 0.564158 154.882 0.653354 154.732 0.811933C154.583 0.970512 154.499 1.18552 154.498 1.40978V36.6475C154.499 36.8718 154.583 37.0868 154.732 37.2453C154.882 37.4039 155.085 37.4931 155.296 37.4934H187.201Z" fill="#3F3D56"/>
<path d="M180.403 30.7906C180.642 30.7906 180.872 30.6898 181.041 30.5103C181.21 30.3308 181.305 30.0873 181.305 29.8335C181.305 29.5796 181.21 29.3362 181.041 29.1567C180.872 28.9772 180.642 28.8764 180.403 28.8764H162.094C161.855 28.8764 161.626 28.9772 161.456 29.1567C161.287 29.3362 161.192 29.5796 161.192 29.8335C161.192 30.0873 161.287 30.3308 161.456 30.5103C161.626 30.6898 161.855 30.7906 162.094 30.7906H180.403Z" fill="#E6E6E6"/>
<path d="M180.403 25.1515C180.642 25.1515 180.872 25.0506 181.041 24.8712C181.21 24.6917 181.305 24.4482 181.305 24.1944C181.305 23.9405 181.21 23.6971 181.041 23.5176C180.872 23.3381 180.642 23.2372 180.403 23.2372H162.094C161.855 23.2372 161.626 23.3381 161.456 23.5176C161.287 23.6971 161.192 23.9405 161.192 24.1944C161.192 24.4482 161.287 24.6917 161.456 24.8712C161.626 25.0506 161.855 25.1515 162.094 25.1515H180.403Z" fill="#E6E6E6"/>
<path d="M171.248 7.26665C172.372 7.26665 173.47 7.61999 174.405 8.28198C175.339 8.94397 176.067 9.88489 176.497 10.9857C176.927 12.0866 177.04 13.298 176.82 14.4666C176.601 15.6353 176.06 16.7088 175.266 17.5513C174.471 18.3939 173.459 18.9677 172.357 19.2001C171.255 19.4326 170.113 19.3133 169.074 18.8573C168.036 18.4013 167.149 17.6291 166.525 16.6384C165.901 15.6476 165.568 14.4828 165.568 13.2913C165.569 11.694 166.168 10.1627 167.233 9.03321C168.298 7.90377 169.742 7.26845 171.248 7.26665Z" fill="#009281"/>
<path d="M61.4901 72.9014C67.1359 68.2642 73.732 65.102 80.7445 63.6708C87.8127 62.2424 95.1013 62.6396 101.994 64.8287C105.459 65.9228 108.788 67.4526 111.911 69.3854C115.092 71.3577 117.967 73.7856 120.733 76.3562C123.534 78.9604 126.244 81.6804 129.169 84.132C137.52 91.2107 147.886 95.0781 158.577 95.1029C159.46 95.1044 160.343 95.0786 161.225 95.0255C161.703 94.9976 161.706 94.2052 161.225 94.2333C150.327 94.8696 139.566 91.4212 130.825 84.4915C127.793 82.0875 125.025 79.3388 122.2 76.6752C119.46 74.0928 116.647 71.5807 113.538 69.506C105.936 64.4265 97.0906 61.8335 88.1071 62.0507C79.1236 62.2678 70.3992 65.2855 63.0225 70.7271C62.3211 71.2443 61.636 71.7848 60.9619 72.3412C60.5829 72.654 61.115 73.211 61.4901 72.9014Z" fill="#3F3D56"/>
<path d="M61.0935 76.7309C63.2377 76.7309 64.9759 74.8875 64.9759 72.6136C64.9759 70.3397 63.2377 68.4963 61.0935 68.4963C58.9493 68.4963 57.2111 70.3397 57.2111 72.6136C57.2111 74.8875 58.9493 76.7309 61.0935 76.7309Z" fill="#3F3D56"/>
<path d="M205.528 131.397C207.673 131.397 209.411 129.554 209.411 127.28C209.411 125.006 207.673 123.163 205.528 123.163C203.384 123.163 201.646 125.006 201.646 127.28C201.646 129.554 203.384 131.397 205.528 131.397Z" fill="#3F3D56"/>
<path d="M225.868 103.826H162.518C162.165 103.826 161.828 103.677 161.578 103.413C161.329 103.148 161.189 102.79 161.188 102.416V67.4604C161.189 67.0867 161.329 66.7283 161.578 66.464C161.828 66.1997 162.165 66.0511 162.518 66.0506H225.868C226.22 66.0511 226.558 66.1997 226.807 66.464C227.056 66.7283 227.197 67.0867 227.197 67.4604V102.416C227.197 102.79 227.056 103.148 226.807 103.413C226.558 103.677 226.22 103.826 225.868 103.826ZM162.518 66.6146C162.306 66.6148 162.104 66.704 161.954 66.8626C161.805 67.0212 161.72 67.2362 161.72 67.4604V102.416C161.72 102.64 161.805 102.855 161.954 103.014C162.104 103.173 162.306 103.262 162.518 103.262H225.868C226.079 103.262 226.282 103.173 226.431 103.014C226.581 102.855 226.665 102.64 226.665 102.416V67.4604C226.665 67.2362 226.581 67.0212 226.431 66.8626C226.282 66.704 226.079 66.6148 225.868 66.6146H162.518Z" fill="#3F3D56"/>
<path d="M173.14 84.1763C176.131 84.1763 178.555 81.6052 178.555 78.4336C178.555 75.262 176.131 72.6909 173.14 72.6909C170.15 72.6909 167.725 75.262 167.725 78.4336C167.725 81.6052 170.15 84.1763 173.14 84.1763Z" fill="#009281"/>
<path d="M185.647 74.6051C185.528 74.6049 185.41 74.6295 185.301 74.6775C185.191 74.7255 185.091 74.796 185.007 74.8849C184.923 74.9738 184.857 75.0793 184.811 75.1956C184.766 75.3118 184.742 75.4364 184.742 75.5622C184.742 75.6881 184.766 75.8127 184.811 75.9289C184.857 76.0452 184.923 76.1508 185.007 76.2397C185.091 76.3286 185.191 76.399 185.301 76.447C185.41 76.495 185.528 76.5196 185.647 76.5194H219.758C219.997 76.5194 220.227 76.4185 220.396 76.239C220.565 76.0595 220.66 75.8161 220.66 75.5622C220.66 75.3084 220.565 75.065 220.396 74.8855C220.227 74.706 219.997 74.6051 219.758 74.6051H185.647Z" fill="#E6E6E6"/>
<path d="M185.647 80.3478C185.528 80.3476 185.41 80.3722 185.301 80.4202C185.191 80.4682 185.091 80.5387 185.007 80.6276C184.923 80.7165 184.857 80.822 184.811 80.9383C184.766 81.0545 184.742 81.1791 184.742 81.305C184.742 81.4308 184.766 81.5554 184.811 81.6716C184.857 81.7879 184.923 81.8935 185.007 81.9824C185.091 82.0713 185.191 82.1417 185.301 82.1897C185.41 82.2377 185.528 82.2623 185.647 82.2621H203.955C204.194 82.2621 204.424 82.1612 204.593 81.9817C204.762 81.8023 204.857 81.5588 204.857 81.305C204.857 81.0511 204.762 80.8077 204.593 80.6282C204.424 80.4487 204.194 80.3478 203.955 80.3478H185.647Z" fill="#E6E6E6"/>
<path d="M168.987 89.5288C168.3 89.5288 167.741 89.9582 167.741 90.4859C167.741 91.0136 168.3 91.443 168.987 91.443H219.253C219.939 91.443 220.498 91.0136 220.498 90.4859C220.498 89.9582 219.939 89.5288 219.253 89.5288H168.987Z" fill="#E6E6E6"/>
<path d="M168.987 95.2715C168.3 95.2715 167.741 95.7009 167.741 96.2286C167.741 96.7563 168.3 97.1857 168.987 97.1857H219.253C219.939 97.1857 220.498 96.7563 220.498 96.2286C220.498 95.7009 219.939 95.2715 219.253 95.2715H168.987Z" fill="#E6E6E6"/>
<path d="M157.425 131.113C160.999 129.469 164.99 130.902 168.358 132.418C170.093 133.198 171.81 134.031 173.605 134.648C175.115 135.165 176.662 135.553 178.231 135.81C181.379 136.321 184.58 136.342 187.734 135.872C190.903 135.403 193.992 134.451 196.904 133.044C199.8 131.652 202.477 129.796 204.841 127.541C205.142 127.253 205.437 126.958 205.726 126.657C206.07 126.299 205.541 125.739 205.198 126.097C202.921 128.45 200.308 130.406 197.455 131.893C194.613 133.375 191.583 134.407 188.459 134.958C185.325 135.518 182.13 135.577 178.98 135.131C177.408 134.906 175.856 134.548 174.338 134.061C172.595 133.46 170.885 132.756 169.216 131.951C165.816 130.403 162.038 128.886 158.302 129.954C157.874 130.08 157.455 130.239 157.048 130.429C156.608 130.631 156.988 131.314 157.425 131.113Z" fill="#3F3D56"/>
<path d="M156.045 140.83H126.115L133.158 127.892C133.285 127.661 133.466 127.468 133.685 127.334C133.904 127.2 134.152 127.13 134.404 127.13C134.657 127.13 134.905 127.2 135.123 127.334C135.342 127.468 135.523 127.661 135.65 127.892L138.659 133.419L143.775 124.022C143.933 123.732 144.16 123.49 144.434 123.323C144.708 123.155 145.018 123.067 145.334 123.067C145.65 123.067 145.961 123.155 146.235 123.323C146.508 123.49 146.736 123.732 146.894 124.022L156.045 140.83Z" fill="#009281"/>
<path d="M156.073 140.827H124.168C123.815 140.826 123.478 140.678 123.228 140.413C122.979 140.149 122.839 139.791 122.839 139.417V120.533C122.839 120.159 122.979 119.801 123.228 119.536C123.478 119.272 123.815 119.123 124.168 119.123H156.073C156.425 119.123 156.763 119.272 157.012 119.536C157.262 119.801 157.402 120.159 157.402 120.533V139.417C157.402 139.791 157.262 140.149 157.012 140.413C156.763 140.678 156.425 140.826 156.073 140.827ZM124.168 119.687C123.956 119.687 123.754 119.776 123.604 119.935C123.455 120.094 123.37 120.309 123.37 120.533V139.417C123.37 139.641 123.455 139.856 123.604 140.015C123.754 140.173 123.956 140.263 124.168 140.263H156.073C156.284 140.263 156.487 140.173 156.637 140.015C156.786 139.856 156.87 139.641 156.87 139.417V120.533C156.87 120.309 156.786 120.094 156.637 119.935C156.487 119.776 156.284 119.687 156.073 119.687H124.168Z" fill="#3F3D56"/>
<path d="M218.65 124.207L212.963 127.269C210.934 128.362 208.975 128.176 208.224 125.896C208.046 125.354 207.98 124.777 208.031 124.205C208.082 123.633 208.25 123.08 208.521 122.582C208.793 122.085 209.163 121.656 209.605 121.325C210.047 120.993 210.552 120.767 211.085 120.662L216.49 119.592L239.638 111.447L253.661 100.903L258.801 109.587L242.598 118.859L218.65 124.207Z" fill="#FFB8B8"/>
<path d="M245.198 225.861L240.846 225.092L241.33 216.376H245.923L245.198 225.861Z" fill="#FFB8B8"/>
<path d="M287.427 217.348L283.216 218.741L279.944 210.73L284.044 208.535L287.427 217.348Z" fill="#FFB8B8"/>
<path d="M285.083 209.711L279.765 212.018L254.383 176.642L246.406 218.171L241.088 217.145C237.677 181.342 234.895 144.823 238.308 127.551L258.009 126.654L266.953 156.903L271.304 177.411L285.083 209.711Z" fill="#1E1E1E"/>
<path d="M244.958 232.91C244.163 233.091 243.333 232.997 242.591 232.643L240.007 231.41C237.839 231.292 236.364 231.75 235.157 230.08C234.817 229.602 234.603 229.037 234.538 228.443C234.473 227.848 234.559 227.246 234.788 226.699C235.014 226.15 235.375 225.674 235.832 225.322C236.289 224.969 236.826 224.752 237.388 224.692L240.938 222.32L241.125 224.098C242.747 225.073 244.674 224.652 246.715 223.703L247.829 227.839C247.973 228.372 248.012 228.931 247.943 229.481C247.875 230.031 247.701 230.56 247.432 231.035C247.162 231.511 246.804 231.922 246.378 232.245C245.953 232.568 245.47 232.794 244.958 232.91Z" fill="#1E1E1E"/>
<path d="M289.15 224.426C288.453 224.871 287.64 225.069 286.83 224.989L284.008 224.713C281.922 225.347 280.666 226.289 279.014 225.125C278.546 224.79 278.17 224.329 277.927 223.789C277.683 223.249 277.581 222.65 277.629 222.054C277.675 221.457 277.871 220.883 278.195 220.392C278.519 219.901 278.961 219.511 279.474 219.26L282.106 215.794L282.827 217.412C284.66 217.775 286.353 216.714 287.993 215.113L290.313 218.641C290.612 219.096 290.82 219.611 290.924 220.155C291.027 220.698 291.025 221.259 290.916 221.801C290.807 222.344 290.594 222.857 290.29 223.308C289.986 223.76 289.599 224.14 289.15 224.426Z" fill="#1E1E1E"/>
<path d="M250.757 90.2527C255.563 90.2527 259.459 86.1209 259.459 81.0241C259.459 75.9273 255.563 71.7955 250.757 71.7955C245.951 71.7955 242.055 75.9273 242.055 81.0241C242.055 86.1209 245.951 90.2527 250.757 90.2527Z" fill="#FFB8B8"/>
<path d="M261.393 100.507L250.032 97.9432L248.582 87.9456L256.559 86.1512L261.393 100.507Z" fill="#FFB8B8"/>
<path d="M258.251 127.936H237.946L242.523 115.75C242.19 111.557 243.866 108.473 246.264 105.788L249.307 97.6867C254.223 94.2553 257.93 94.5117 261.877 98.9685C266.556 105.995 263.317 116.558 258.251 127.936Z" fill="#009281"/>
<path d="M249.065 153.827L248.488 160.563C248.282 162.968 247.091 164.628 244.872 164.09C244.344 163.962 243.848 163.715 243.418 163.364C242.989 163.014 242.636 162.57 242.383 162.062C242.13 161.554 241.984 160.993 241.955 160.42C241.925 159.846 242.013 159.273 242.212 158.738L244.231 153.314L250.032 128.192L249.065 109.992H258.734L257.526 129.474L249.065 153.827Z" fill="#FFB8B8"/>
<path d="M259.459 110.504H248.34L249.119 102.812C249.171 101.481 249.689 100.219 250.573 99.2734C251.457 98.3276 252.642 97.7663 253.896 97.6998C254.56 97.6645 255.225 97.7694 255.851 98.0083C256.477 98.2473 257.052 98.6155 257.543 99.0917C258.034 99.5679 258.431 100.143 258.711 100.783C258.992 101.423 259.149 102.115 259.175 102.82L259.459 110.504Z" fill="#009281"/>
<path d="M261.527 71.5351C263.334 71.5351 264.798 69.9821 264.798 68.0663C264.798 66.1506 263.334 64.5975 261.527 64.5975C259.721 64.5975 258.257 66.1506 258.257 68.0663C258.257 69.9821 259.721 71.5351 261.527 71.5351Z" fill="#1E1E1E"/>
<path d="M258.157 67.2171C258.211 66.337 258.579 65.5118 259.186 64.9094C259.794 64.3071 260.595 63.9729 261.426 63.9751C261.359 63.966 261.292 63.9549 261.223 63.9502C260.358 63.8918 259.506 64.2001 258.855 64.8075C258.204 65.4149 257.807 66.2717 257.751 67.1894C257.695 68.1071 257.986 69.0107 258.558 69.7016C259.13 70.3924 259.938 70.8139 260.803 70.8735C260.872 70.8782 260.94 70.8763 261.008 70.8765C260.183 70.7656 259.429 70.3254 258.899 69.6456C258.37 68.9657 258.104 68.0972 258.157 67.2171Z" fill="#1E1E1E"/>
<path d="M258.139 68.6984C255.222 66.132 246.854 69.3937 246.315 71.1191C242.37 71.6892 239.383 74.1299 239.383 78.4698C241.728 79.4887 244.396 79.3632 247.279 78.4698C251.875 82.4421 252.19 87.4357 249.395 93.1713L252.834 93.2442L257.097 86.6373L257.301 93.339L265.183 93.1713V83.5674C265.209 80.3742 264.516 77.2206 263.162 74.3684C261.933 71.8375 260.027 70.3597 258.139 68.6984Z" fill="#1E1E1E"/>
<path d="M250.798 85.6663C251.662 85.6663 252.362 84.6266 252.362 83.344C252.362 82.0615 251.662 81.0218 250.798 81.0218C249.934 81.0218 249.234 82.0615 249.234 83.344C249.234 84.6266 249.934 85.6663 250.798 85.6663Z" fill="#FFB8B8"/>
<path d="M53.9907 86.2909C53.9907 86.2909 54.9323 69.0079 59.8203 72.9351C64.7084 76.8622 57.6857 87.8938 57.6857 87.8938L53.9907 86.2909Z" fill="#FFB9B9"/>
<path d="M35.805 137.557C35.805 137.557 46.6631 150.484 40.5881 151.372C34.5132 152.261 32.1235 139.194 32.1235 139.194L35.805 137.557Z" fill="#FFB9B9"/>
<path d="M21.6361 76.3665C22.9989 76.7468 24.2253 77.5457 25.1614 78.6627C26.0975 79.7798 26.7015 81.1653 26.8976 82.6452L30.3514 108.715L35.1933 129.511C35.1933 129.511 37.6142 131.822 36.6459 133.106C35.6775 134.389 37.8563 139.781 37.8563 139.781L31.804 141.835C31.804 141.835 31.0777 136.443 29.8673 136.186C28.8035 135.961 16.8951 102.225 14.0246 94.052C13.6289 92.9251 13.4049 92.2842 13.4049 92.2842C13.4049 92.2842 13.8891 75.0828 21.6361 76.3665Z" fill="#009281"/>
<path d="M22.7415 212.32L26.459 219.306C29.3379 225.824 26.7796 227.008 19.721 223.777L18.1121 215.528L22.7415 212.32Z" fill="#FFB9B9"/>
<path d="M24.6172 221.605C24.6172 221.605 26.382 218.558 27.0202 219.068C27.6585 219.578 30.2913 221.788 30.2913 221.788L33.7205 225.271C33.7205 225.271 45.3064 226.57 37.9444 230.875C30.5825 235.18 26.5141 231.611 26.5141 231.611C26.5141 231.611 16.203 232.18 16.3693 229.129C16.5356 226.078 19.861 221.251 19.861 221.251C19.861 221.251 24.0522 224.231 24.6172 221.605Z" fill="#1E1E1E"/>
<path d="M6.24512 133.349L9.73029 178.07C9.73029 178.07 9.84647 204.805 13.564 209.979C17.2815 215.153 17.3976 217.741 17.3976 217.741L25.065 213.552C25.065 213.552 21.1152 206.572 21.9284 205.504C22.4296 204.826 22.7864 204.041 22.9739 203.203L20.8828 175.606L24.8327 127.559L6.24512 133.349Z" fill="#1E1E1E"/>
<path d="M15.7711 212.32L12.5183 221.437L5.14136 218.166L9.03321 211.334L15.7711 212.32Z" fill="#FFB9B9"/>
<path d="M10.3445 218.366C10.3445 218.366 13.1113 216.532 13.4571 217.266C13.803 217.999 15.1863 221.117 15.1863 221.117L16.7426 225.701C16.7426 225.701 26.2533 232.12 18.126 232.486C9.99869 232.853 7.92364 227.902 7.92364 227.902C7.92364 227.902 -1.24116 223.684 0.142213 221.117C1.52559 218.549 6.36737 215.887 6.36737 215.887C6.36737 215.887 8.78825 220.383 10.3445 218.366Z" fill="#1E1E1E"/>
<path d="M35.7529 133.472L37.6116 174.621C37.6116 174.621 20.6505 211.827 18.7917 212.813C18.2378 213.116 17.7469 213.534 17.3478 214.042C16.9488 214.55 16.6497 215.137 16.4683 215.769L6.24512 213.059L10.892 205.174L21.1152 178.81C21.1152 178.81 22.7416 178.07 23.2063 175.606C23.671 173.142 24.6003 173.142 22.2769 172.65C19.9534 172.157 19.9534 169.693 19.9534 169.693L12.2861 132.24L35.7529 133.472Z" fill="#1E1E1E"/>
<path d="M36.5622 60.6385C37.3844 55.2655 33.9436 50.2029 28.8771 49.331C23.8106 48.4591 19.0368 52.108 18.2147 57.481C17.3925 62.854 20.8332 67.9165 25.8997 68.7884C30.9662 69.6603 35.74 66.0115 36.5622 60.6385Z" fill="#FFB9B9"/>
<path d="M19.1402 59.6757C19.1402 59.6757 18.4432 72.2421 17.5138 73.474C16.5845 74.706 27.2723 74.4596 27.2723 74.4596C27.2723 74.4596 26.5753 63.8645 27.2723 62.8789C27.9693 61.8933 19.1402 59.6757 19.1402 59.6757Z" fill="#FFB9B9"/>
<path d="M36.449 136.183C36.449 136.183 10.194 133.719 5.31604 136.183C5.31604 136.183 7.11177 129.118 6.64777 128.38C6.31032 127.84 7.24133 107.717 6.94907 96.1084C6.78335 89.5582 5.35822 83.1614 9.50105 78.2983C10.9111 76.6463 12.4839 75.2596 14.144 74.5822C14.144 74.5822 13.68 69.9012 16.003 69.6552C16.003 69.6552 24.834 68.6678 28.085 71.6266C29.1245 72.566 29.7783 75.4289 29.8476 77.8957C28.2387 86.2863 28.8081 95.5972 30.2845 105.256C30.3749 105.87 30.4743 106.487 30.5737 107.103C32.1405 116.682 34.5087 126.559 36.449 136.183Z" fill="#009281"/>
<path d="M22.5332 61.9639C23.3192 61.9142 24.0867 62.1959 24.8672 62.3058C27.6597 62.6989 30.5647 60.55 31.1813 57.635C31.2307 57.2468 31.3398 56.8699 31.5043 56.5191C31.934 55.775 32.9128 55.6331 33.7197 55.8042C34.5266 55.9754 35.2914 56.3758 36.1131 56.4216C37.3819 56.4922 38.5999 55.6638 39.2761 54.5231C39.9151 53.3463 40.1868 51.9854 40.0524 50.635L39.4442 51.312C39.197 50.7575 39.1016 50.1405 39.1688 49.5314C38.8465 49.4403 38.5075 49.4386 38.1844 49.5263C37.8613 49.6139 37.5648 49.7881 37.3233 50.0322C36.787 50.0927 37.1917 48.9772 36.7933 48.5917C36.5995 48.4654 36.3685 48.4196 36.1448 48.463C35.0039 48.4747 34.0809 47.5493 33.1818 46.8042C31.624 45.5163 29.8024 44.6351 27.864 44.2319C26.5757 43.9654 25.2057 43.9226 23.9839 44.4313C22.9975 44.9009 22.1074 45.5705 21.3635 46.4025C19.4506 48.3531 17.7568 50.645 16.961 53.3298C16.314 55.5288 16.2957 57.8818 16.9083 60.0919C17.229 61.2396 18.1954 65.1703 19.6101 65.2619C21.3878 65.3769 20.3205 62.1039 22.5332 61.9639Z" fill="#1E1E1E"/>
<path d="M26.3801 77.5761L29.7098 77.9544C29.7098 77.9544 32.9783 84.6792 32.7409 86.0819C32.5036 87.4846 31.9866 86.633 33.4578 88.8772C34.9289 91.1214 39.1033 96.9222 39.6203 97.7737C40.1372 98.6253 54.2297 87.2226 53.3536 83.8062C53.3536 83.8062 57.8044 87.1923 59.7113 87.6431C59.7113 87.6431 45.1878 107.843 43.1639 110.428C41.14 113.013 39.5111 112.482 36.7297 110.949C33.9484 109.416 19.8774 94.1281 19.8774 94.1281L26.3801 77.5761Z" fill="#009281"/>
<path opacity="0.1" d="M30.5738 107.103L19.001 94.8303L21.9296 93.8174L30.2845 105.256C30.3749 105.87 30.4744 106.486 30.5738 107.103Z" fill="black"/>
</g>
<defs>
<clipPath id="clip0_20_207">
<rect width="291" height="233" fill="white"/>
</clipPath>
</defs>
</svg>
