<svg width="291" height="192" viewBox="0 0 291 192" fill="none" xmlns="http://www.w3.org/2000/svg">
<g clip-path="url(#clip0_20_613)">
<path d="M279.625 128.49C277.524 130.777 274.918 132.48 272.09 133.802H272.087C271.821 133.928 271.555 134.05 271.285 134.166H271.282L271.278 134.169L271.275 134.166H271.272L271.271 134.167L271.271 134.168L271.269 134.169L271.268 134.169H271.265L271.261 134.166C271.258 134.169 271.258 134.169 271.254 134.166L271.251 134.169L271.248 134.166H271.244C271.241 134.169 271.241 134.169 271.237 134.166H271.234C269.341 134.981 267.397 135.674 265.415 136.238C253.756 139.534 241.502 140.171 229.562 138.104C229.333 138.063 229.108 138.023 228.879 137.982V110.419C229.105 110.324 229.333 110.228 229.562 110.137C231.052 109.522 232.561 108.956 234.088 108.441C236.285 107.693 238.512 107.052 240.77 106.518C248.137 104.741 255.739 104.129 263.297 104.703C264.671 104.805 266.042 104.952 267.41 105.145C270.272 105.542 273.274 106.235 275.914 107.438H275.917C276.303 107.619 276.681 107.805 277.057 108.006C279.403 109.273 281.382 111.017 282.589 113.406C283.023 114.264 283.335 115.177 283.517 116.121V116.128C283.585 116.454 283.633 116.784 283.671 117.11C284.1 121.133 282.426 125.439 279.625 128.49Z" fill="#F2F2F2"/>
<path d="M283.671 117.11C283.637 117.118 283.603 117.123 283.568 117.123C277.725 117.378 271.89 117.757 266.063 118.258H266.053C266.029 118.262 266.008 118.262 265.985 118.265C260.002 118.782 254.031 119.429 248.073 120.206C247.821 120.24 247.572 120.274 247.323 120.304C243.202 120.851 239.09 121.458 234.985 122.126C233.174 122.421 231.366 122.729 229.562 123.05C229.333 123.091 229.108 123.128 228.879 123.172V122.143C229.108 122.098 229.336 122.061 229.562 122.02C235.572 120.96 241.603 120.035 247.654 119.244C249.175 119.04 250.699 118.847 252.224 118.666C256.631 118.136 261.045 117.678 265.466 117.293C265.79 117.266 266.111 117.239 266.435 117.212C272.094 116.733 277.76 116.369 283.435 116.121C283.463 116.12 283.49 116.122 283.517 116.128C284.063 116.175 284.179 116.991 283.671 117.11Z" fill="white"/>
<path d="M271.536 133.164C264.257 133.217 257.086 130.142 251.937 125.053C250.485 123.611 249.204 122.007 248.122 120.271C247.775 119.717 246.963 120.328 247.307 120.878C251.306 127.267 257.967 131.818 265.31 133.492C267.396 133.962 269.529 134.19 271.667 134.169C272.32 134.164 272.185 133.159 271.536 133.164Z" fill="white"/>
<path d="M240.77 106.518C240.739 106.613 240.683 106.699 240.608 106.766C240.534 106.834 240.442 106.88 240.344 106.902C238.676 107.337 237.064 107.964 235.541 108.771C233.317 109.941 231.298 111.461 229.562 113.273C229.47 113.365 229.381 113.457 229.296 113.552C229.152 113.701 229.016 113.854 228.879 114.011V112.529C229.098 112.298 229.326 112.07 229.562 111.853C230.933 110.545 232.452 109.4 234.088 108.441C236.285 107.693 238.512 107.052 240.77 106.518Z" fill="white"/>
<path d="M276.517 107.171C271.887 109.153 268.013 112.556 265.458 116.885C265.406 117.008 265.406 117.148 265.456 117.272C265.507 117.396 265.605 117.496 265.729 117.549C265.853 117.598 265.992 117.597 266.116 117.547C266.24 117.497 266.34 117.401 266.395 117.279C268.833 113.191 272.512 109.98 276.9 108.11C277.502 107.853 277.121 106.914 276.517 107.171Z" fill="white"/>
<path d="M290.476 78.3088C289.684 81.3061 288.166 84.0212 286.28 86.4986L286.277 86.5019C286.103 86.733 285.922 86.9675 285.734 87.1918V87.1952C284.425 88.8025 283.011 90.3225 281.501 91.7454C276.075 96.8966 269.947 101.259 263.297 104.703C252.835 110.147 241.142 113.365 229.562 113.548C229.473 113.552 229.384 113.552 229.296 113.552C229.156 113.555 229.016 113.555 228.879 113.555V98.1103C229.101 97.6889 229.33 97.2675 229.562 96.8496C232.571 91.4547 236.241 86.4528 240.487 81.9585C240.589 81.8464 240.695 81.7342 240.801 81.6255C242.397 79.9468 244.071 78.3485 245.822 76.8306C252.558 70.93 260.343 66.337 268.775 63.2886C271.493 62.3167 274.474 61.5386 277.374 61.3856C277.8 61.3618 278.223 61.3516 278.65 61.355C281.32 61.3924 283.882 62.0211 286.069 63.5775C286.852 64.1377 287.554 64.802 288.156 65.5519C288.368 65.8135 288.562 66.082 288.75 66.3572V66.3606C291.008 69.7249 291.533 74.3091 290.476 78.3088Z" fill="#F2F2F2"/>
<path d="M288.75 66.3572V66.3606C288.724 66.3826 288.697 66.4019 288.668 66.4184C283.619 69.3443 278.635 72.3766 273.714 75.5155C273.707 75.5189 273.704 75.5223 273.697 75.5257C273.677 75.5393 273.657 75.5518 273.635 75.563C268.577 78.7913 263.59 82.1284 258.675 85.5742C258.47 85.7169 258.262 85.8631 258.054 86.0092C254.66 88.3981 251.301 90.8381 247.978 93.329C241.701 98.0389 235.563 102.923 229.562 107.982C229.333 108.172 229.108 108.366 228.879 108.56V107.238C229.105 107.044 229.333 106.851 229.562 106.66C231.861 104.727 234.18 102.82 236.52 100.941C237.219 100.38 237.922 99.8196 238.625 99.2657C244.867 94.3145 251.249 89.5479 257.771 84.9659H257.774C259.057 84.0654 260.342 83.1728 261.628 82.2881C265.285 79.7802 268.983 77.3324 272.721 74.9446C272.991 74.7712 273.264 74.5979 273.536 74.4246C278.322 71.3798 283.17 68.4347 288.081 65.5892C288.105 65.5747 288.13 65.5622 288.156 65.5518C288.668 65.348 289.149 66.0208 288.75 66.3572Z" fill="white"/>
<path d="M285.491 86.1905C279.07 89.6063 271.286 90.2019 264.353 88.0774C262.395 87.473 260.513 86.6446 258.746 85.6087C258.18 85.2783 257.746 86.1955 258.307 86.5231C264.827 90.3303 272.847 91.2782 280.131 89.3617C282.197 88.8135 284.192 88.0276 286.076 87.02C286.652 86.7137 286.063 85.8862 285.491 86.1905Z" fill="white"/>
<path d="M237.448 98.6241C237.13 96.8451 237.021 95.0354 237.123 93.2313C237.353 89.117 238.618 85.1262 240.801 81.6261C242.399 79.948 244.073 78.3494 245.823 76.8305C245.839 76.9298 245.83 77.0317 245.795 77.1262C245.76 77.2206 245.7 77.3043 245.623 77.369C244.35 78.5268 243.215 79.8277 242.242 81.2456C238.767 86.2988 237.41 92.5047 238.462 98.54C238.479 98.6084 238.478 98.6801 238.459 98.7481C238.441 98.8161 238.405 98.8781 238.355 98.9283C238.282 98.9916 238.194 99.0348 238.099 99.0536C238.004 99.0723 237.906 99.066 237.814 99.0352C237.722 99.0045 237.64 98.9503 237.576 98.8782C237.512 98.806 237.468 98.7184 237.448 98.6241Z" fill="white"/>
<path d="M277.782 60.8665C274.606 64.7651 272.762 69.5717 272.518 74.5868C272.53 74.7204 272.594 74.8439 272.697 74.9306C272.8 75.0172 272.933 75.06 273.067 75.0497C273.2 75.0354 273.323 74.9707 273.409 74.8689C273.496 74.767 273.54 74.6359 273.532 74.5027C273.785 69.7542 275.545 65.2085 278.559 61.5211C278.973 61.0155 278.197 60.3599 277.782 60.8665Z" fill="white"/>
<path d="M242.459 72.0323V72.0357C242.435 72.328 242.408 72.6168 242.377 72.9056V72.9124C242.14 74.9685 241.769 77.0072 241.268 79.0156C241.029 80.0011 240.77 80.9798 240.487 81.9585C240.453 82.0842 240.415 82.21 240.378 82.3323V82.3357C239.545 85.1821 238.55 87.9789 237.397 90.7124C235.276 95.745 232.651 100.552 229.562 105.06C229.34 105.389 229.111 105.719 228.879 106.045V52.8289C229.108 52.8153 229.333 52.8153 229.562 52.8221C229.671 52.8221 229.78 52.8255 229.889 52.8323C230.852 52.8827 231.802 53.0668 232.713 53.3794C233.034 53.4848 233.344 53.6037 233.652 53.7362C237.373 55.3606 240.296 58.9423 241.565 62.8809C242.517 65.8305 242.708 68.9331 242.459 72.0323Z" fill="#F2F2F2"/>
<path d="M233.651 53.7362C233.643 53.7695 233.631 53.8016 233.614 53.8314C232.232 56.5058 230.882 59.1938 229.562 61.8954C229.333 62.3609 229.105 62.8299 228.879 63.2954V60.9846C229.105 60.5225 229.332 60.0603 229.562 59.5982C230.582 57.5388 231.619 55.4886 232.672 53.4474C232.684 53.4235 232.698 53.4008 232.713 53.3794C233.027 52.9308 233.805 53.2367 233.651 53.7362Z" fill="white"/>
<path d="M242.568 72.5794C242.506 72.6881 242.445 72.7969 242.377 72.9056C241.375 74.6446 240.183 76.2675 238.822 77.7447C236.209 80.5693 233.062 82.8523 229.562 84.463C229.336 84.5718 229.108 84.6737 228.879 84.7689V83.6644C229.108 83.5625 229.336 83.4571 229.562 83.3484C234.629 80.9405 238.838 77.0496 241.626 72.1954C241.667 72.1261 241.721 72.0662 241.787 72.0198C241.852 71.9734 241.927 71.9415 242.006 71.9264C242.085 71.9112 242.166 71.9132 242.244 71.932C242.322 71.9509 242.395 71.9862 242.459 72.0357C242.502 72.0642 242.539 72.1009 242.567 72.1437C242.596 72.1865 242.616 72.2345 242.626 72.285C242.637 72.3355 242.637 72.3875 242.627 72.438C242.616 72.4885 242.596 72.5366 242.568 72.5794Z" fill="white"/>
<path d="M229.562 11.2142V37.0407H228.879V36.7655H0.682204V37.0407H0V11.2142C0.00292951 8.24088 1.1898 5.3902 3.30015 3.28777C5.41049 1.18534 8.27189 0.00291853 11.2564 0H218.305C221.29 0.00291853 224.151 1.18534 226.261 3.28777C228.372 5.3902 229.559 8.24088 229.562 11.2142Z" fill="#009281"/>
<path d="M218.305 0H11.2564C8.27189 0.00291853 5.41049 1.18534 3.30015 3.28777C1.1898 5.3902 0.00292951 8.24088 0 11.2142V158.697C0.00292951 161.671 1.1898 164.521 3.30015 166.624C5.41049 168.726 8.27189 169.909 11.2564 169.911H218.305C221.29 169.909 224.151 168.726 226.261 166.624C228.372 164.521 229.559 161.671 229.562 158.697V11.2142C229.559 8.24088 228.372 5.3902 226.261 3.28777C224.151 1.18534 221.29 0.00291853 218.305 0ZM228.879 158.697C228.876 161.49 227.761 164.168 225.778 166.142C223.796 168.117 221.109 169.228 218.305 169.232H11.2564C8.45302 169.228 5.76552 168.117 3.78325 166.142C1.80099 164.168 0.685781 161.49 0.682204 158.697V11.2142C0.685781 8.42133 1.80099 5.7439 3.78325 3.76907C5.76552 1.79424 8.45302 0.683209 11.2564 0.679646H218.305C221.109 0.68321 223.796 1.79424 225.778 3.76907C227.761 5.7439 228.876 8.42133 228.879 11.2142V158.697Z" fill="#3F3D56"/>
<path d="M46.3899 25.3168C50.1576 25.3168 53.2119 22.2739 53.2119 18.5204C53.2119 14.7668 50.1576 11.7239 46.3899 11.7239C42.6222 11.7239 39.5679 14.7668 39.5679 18.5204C39.5679 22.2739 42.6222 25.3168 46.3899 25.3168Z" fill="white"/>
<path d="M183.172 25.3168C186.939 25.3168 189.994 22.2739 189.994 18.5204C189.994 14.7668 186.939 11.7239 183.172 11.7239C179.404 11.7239 176.35 14.7668 176.35 18.5204C176.35 22.2739 179.404 25.3168 183.172 25.3168Z" fill="white"/>
<path d="M66.1003 94.3015H25.5173C23.798 94.2996 22.1497 93.6183 20.934 92.4072C19.7183 91.196 19.0344 89.5539 19.0325 87.841V68.7319C19.0344 67.019 19.7183 65.3769 20.934 64.1657C22.1497 62.9546 23.798 62.2733 25.5173 62.2713H66.1003C67.8196 62.2733 69.4679 62.9546 70.6837 64.1657C71.8994 65.3769 72.5832 67.019 72.5852 68.7319V87.841C72.5832 89.5539 71.8994 91.196 70.6837 92.4072C69.4679 93.6183 67.8196 94.2996 66.1003 94.3015Z" fill="#009281"/>
<path d="M135.139 94.3015H94.5559C92.8366 94.2996 91.1883 93.6183 89.9726 92.4072C88.7568 91.196 88.073 89.5539 88.071 87.841V68.7319C88.073 67.019 88.7568 65.3769 89.9726 64.1657C91.1883 62.9546 92.8366 62.2733 94.5559 62.2713H135.139C136.858 62.2733 138.507 62.9546 139.722 64.1657C140.938 65.3769 141.622 67.019 141.624 68.7319V87.841C141.622 89.5539 140.938 91.196 139.722 92.4072C138.507 93.6183 136.858 94.2996 135.139 94.3015Z" fill="#009281"/>
<path d="M135.139 143.675H94.5559C92.7845 143.673 91.0862 142.971 89.8336 141.723C88.5811 140.475 87.8765 138.783 87.8745 137.019V117.909C87.8765 116.145 88.5811 114.453 89.8336 113.205C91.0862 111.957 92.7845 111.255 94.5559 111.253H135.139C136.91 111.255 138.609 111.957 139.861 113.205C141.114 114.453 141.818 116.145 141.82 117.909V137.019C141.818 138.783 141.114 140.475 139.861 141.723C138.609 142.971 136.91 143.673 135.139 143.675Z" fill="#F2F2F2"/>
<path d="M65.9672 143.675H25.3842C23.6128 143.673 21.9146 142.971 20.662 141.723C19.4094 140.475 18.7049 138.783 18.7029 137.019V117.909C18.7049 116.145 19.4094 114.453 20.662 113.205C21.9146 111.957 23.6128 111.255 25.3842 111.253H65.9672C67.7386 111.255 69.4369 111.957 70.6895 113.205C71.942 114.453 72.6466 116.145 72.6486 117.909V137.019C72.6466 138.783 71.942 140.475 70.6895 141.723C69.4369 142.971 67.7386 143.673 65.9672 143.675Z" fill="#F2F2F2"/>
<path d="M204.177 143.675H163.594C161.823 143.673 160.125 142.971 158.872 141.723C157.62 140.475 156.915 138.783 156.913 137.019V117.909C156.915 116.145 157.62 114.453 158.872 113.205C160.125 111.957 161.823 111.255 163.594 111.253H204.177C205.949 111.255 207.647 111.957 208.9 113.205C210.152 114.453 210.857 116.145 210.859 117.909V137.019C210.857 138.783 210.152 140.475 208.9 141.723C207.647 142.971 205.949 143.673 204.177 143.675Z" fill="#F2F2F2"/>
<path d="M204.177 94.34H163.594C161.823 94.338 160.125 93.6361 158.872 92.3882C157.62 91.1403 156.915 89.4484 156.913 87.6837V68.5743C156.915 66.8096 157.62 65.1177 158.872 63.8698C160.125 62.6219 161.823 61.92 163.594 61.918H204.177C205.949 61.92 207.647 62.6219 208.9 63.8698C210.152 65.1177 210.857 66.8096 210.859 68.5743V87.6837C210.857 89.4484 210.152 91.1403 208.9 92.3882C207.647 93.6361 205.949 94.338 204.177 94.34Z" fill="#F2F2F2"/>
<path d="M45.8088 89.2497C51.8864 89.2497 56.8134 84.3413 56.8134 78.2864C56.8134 72.2316 51.8864 67.3231 45.8088 67.3231C39.7311 67.3231 34.8042 72.2316 34.8042 78.2864C34.8042 84.3413 39.7311 89.2497 45.8088 89.2497Z" fill="white"/>
<path d="M44.718 82.4687C44.4704 82.4692 44.2294 82.3894 44.0313 82.2414L44.019 82.2323L41.4329 80.2596C41.3129 80.1683 41.2123 80.0543 41.1366 79.9241C41.0609 79.7939 41.0117 79.6502 40.9918 79.5011C40.9719 79.352 40.9817 79.2005 41.0207 79.0551C41.0596 78.9098 41.1269 78.7735 41.2187 78.6541C41.3106 78.5348 41.4251 78.4346 41.5558 78.3593C41.6866 78.284 41.8309 78.2352 41.9806 78.2155C42.1303 78.1958 42.2824 78.2057 42.4282 78.2447C42.574 78.2836 42.7107 78.3508 42.8305 78.4424L44.5056 79.722L48.4642 74.5789C48.556 74.4596 48.6705 74.3595 48.8011 74.2843C48.9317 74.2091 49.076 74.1602 49.2256 74.1406C49.3751 74.1209 49.5272 74.1308 49.6729 74.1696C49.8187 74.2085 49.9553 74.2756 50.0751 74.367L50.0504 74.4003L50.0757 74.3675C50.3172 74.5524 50.4752 74.8253 50.5151 75.1261C50.555 75.427 50.4734 75.7314 50.2883 75.9724L45.6321 82.022C45.5244 82.1614 45.386 82.2742 45.2274 82.3517C45.0689 82.4291 44.8946 82.4692 44.718 82.4687Z" fill="#009281"/>
<path d="M115.044 89.0923C121.122 89.0923 126.048 84.1839 126.048 78.129C126.048 72.0741 121.122 67.1657 115.044 67.1657C108.966 67.1657 104.039 72.0741 104.039 78.129C104.039 84.1839 108.966 89.0923 115.044 89.0923Z" fill="white"/>
<path d="M113.953 82.3112C113.706 82.3117 113.464 82.2319 113.266 82.084L113.254 82.0748L110.668 80.1022C110.426 79.9176 110.268 79.6448 110.228 79.3438C110.188 79.0428 110.269 78.7384 110.455 78.4974C110.64 78.2564 110.914 78.0987 111.216 78.0588C111.518 78.019 111.824 78.1003 112.066 78.285L113.741 79.5646L117.699 74.4214C117.791 74.3021 117.906 74.202 118.036 74.1268C118.167 74.0516 118.311 74.0028 118.461 73.9831C118.61 73.9634 118.762 73.9733 118.908 74.0122C119.054 74.051 119.19 74.1181 119.31 74.2096L119.286 74.2429L119.311 74.2101C119.552 74.395 119.71 74.6678 119.75 74.9687C119.79 75.2696 119.708 75.5739 119.523 75.8149L114.867 81.8646C114.76 82.004 114.621 82.1168 114.462 82.1942C114.304 82.2717 114.13 82.3117 113.953 82.3112Z" fill="#009281"/>
<path d="M189.418 129.863C189.78 129.469 190.05 129.001 190.21 128.492C190.371 127.983 190.417 127.445 190.346 126.916C190.275 126.387 190.089 125.88 189.8 125.43C189.511 124.981 189.126 124.6 188.674 124.315L182.53 91.6332L175.058 94.3934L183.447 125.651C183.016 126.44 182.891 127.359 183.095 128.235C183.299 129.11 183.818 129.88 184.554 130.399C185.29 130.919 186.192 131.151 187.088 131.052C187.985 130.953 188.814 130.53 189.418 129.863Z" fill="#A0616A"/>
<path d="M129.799 79.9945C129.817 80.1974 129.82 80.4015 129.806 80.6048L144.334 91.7441L148.453 90.0587L151.819 95.9203L144.817 99.6101C144.251 99.9081 143.604 100.015 142.972 99.9156C142.34 99.8159 141.757 99.5146 141.312 99.057L126.791 84.1425C126.022 84.3152 125.219 84.2506 124.488 83.9575C123.757 83.6643 123.133 83.1564 122.699 82.5012C122.265 81.8461 122.041 81.0748 122.058 80.29C122.074 79.5052 122.33 78.744 122.792 78.1076C123.253 77.4713 123.898 76.99 124.641 76.7278C125.383 76.4656 126.189 76.4348 126.949 76.6397C127.71 76.8445 128.39 77.2752 128.899 77.8745C129.408 78.4738 129.722 79.2132 129.799 79.9945Z" fill="#A0616A"/>
<path d="M163.738 187.871H159.557L157.567 175.199L163.74 175.2L163.738 187.871Z" fill="#A0616A"/>
<path d="M164.805 191.909L151.321 191.909V191.739C151.321 191.052 151.457 190.372 151.721 189.738C151.984 189.104 152.371 188.527 152.858 188.042C153.346 187.556 153.924 187.171 154.561 186.908C155.198 186.646 155.88 186.51 156.57 186.51L164.805 186.511L164.805 191.909Z" fill="#1E1E1E"/>
<path d="M179.429 187.871H175.248L173.258 175.199L179.43 175.2L179.429 187.871Z" fill="#A0616A"/>
<path d="M180.496 191.909L167.012 191.909V191.739C167.012 191.052 167.148 190.372 167.411 189.738C167.675 189.104 168.062 188.527 168.549 188.042C169.036 187.556 169.615 187.171 170.252 186.908C170.888 186.646 171.571 186.51 172.26 186.51L180.496 186.511L180.496 191.909Z" fill="#1E1E1E"/>
<path d="M158.689 185.366C158.307 185.367 157.939 185.225 157.656 184.969C157.374 184.713 157.198 184.361 157.162 183.983L153.518 135.154L153.69 135.14L178.768 133.086L178.775 133.264L180.769 183.847C180.776 184.052 180.742 184.257 180.669 184.449C180.595 184.641 180.483 184.816 180.34 184.965C180.197 185.113 180.025 185.23 179.835 185.311C179.645 185.391 179.441 185.433 179.235 185.433H174.318C173.95 185.435 173.595 185.304 173.316 185.066C173.038 184.828 172.855 184.498 172.8 184.136L166.123 143.274C166.116 143.232 166.094 143.194 166.061 143.167C166.027 143.141 165.985 143.128 165.942 143.131C165.899 143.134 165.859 143.153 165.83 143.184C165.801 143.215 165.784 143.256 165.784 143.299L165.481 183.644C165.478 184.033 165.326 184.407 165.055 184.689C164.785 184.971 164.417 185.139 164.027 185.16L158.771 185.364C158.743 185.366 158.716 185.366 158.689 185.366Z" fill="#1E1E1E"/>
<path d="M162.969 73.4444C167.596 73.4444 171.347 69.7076 171.347 65.098C171.347 60.4884 167.596 56.7516 162.969 56.7516C158.342 56.7516 154.591 60.4884 154.591 65.098C154.591 69.7076 158.342 73.4444 162.969 73.4444Z" fill="#A0616A"/>
<path d="M164.591 138.268C160.929 138.257 157.285 137.761 153.755 136.792C153.415 136.694 153.12 136.482 152.918 136.191C152.717 135.901 152.623 135.551 152.651 135.2C153.779 118.313 154.044 105.208 151.672 96.1408C150.661 92.2763 151.12 88.2062 152.931 84.9743C155.657 80.1104 160.666 77.15 166.009 77.2522C166.264 77.2571 166.522 77.2661 166.783 77.2795C174.892 77.6954 181.21 85.0038 180.868 93.5712L179.237 134.407C179.231 134.705 179.137 134.995 178.966 135.239C178.795 135.484 178.555 135.672 178.277 135.781C173.901 137.421 169.266 138.264 164.591 138.268Z" fill="#3F3D56"/>
<path d="M153.051 99.2762L146.775 91.6151C146.597 91.3971 146.467 91.1433 146.396 90.8711C146.325 90.5988 146.313 90.3145 146.362 90.0374C146.411 89.7603 146.52 89.497 146.68 89.2654C146.841 89.0338 147.049 88.8394 147.292 88.6953L155.793 83.649C156.917 82.7449 158.356 82.3222 159.793 82.4733C161.23 82.6244 162.548 83.3372 163.458 84.4552C164.369 85.5732 164.797 87.0053 164.649 88.4374C164.501 89.8694 163.789 91.1846 162.669 92.0944L156.025 99.3575C155.835 99.5654 155.602 99.73 155.342 99.8401C155.082 99.9502 154.802 100.003 154.519 99.9954C154.237 99.9877 153.96 99.9195 153.706 99.7954C153.453 99.6712 153.229 99.4942 153.051 99.2762Z" fill="#3F3D56"/>
<path d="M172.792 98.3148C172.534 98.1999 172.304 98.031 172.118 97.8195C171.932 97.608 171.794 97.359 171.713 97.0894L168.888 87.6745C168.274 86.3708 168.205 84.878 168.695 83.5236C169.185 82.1691 170.194 81.0635 171.502 80.4493C172.809 79.8351 174.307 79.7624 175.668 80.2473C177.028 80.7321 178.141 81.7347 178.76 83.0354L184.224 91.2552C184.38 91.4898 184.483 91.7551 184.527 92.0331C184.57 92.311 184.553 92.5951 184.477 92.8659C184.4 93.1368 184.266 93.3881 184.084 93.6026C183.901 93.8171 183.674 93.9899 183.418 94.1092L174.429 98.3013C174.173 98.4207 173.894 98.4838 173.612 98.4861C173.329 98.4884 173.05 98.43 172.792 98.3148Z" fill="#3F3D56"/>
<path d="M167.109 71.9464L160.899 70.5303C160.258 70.3843 159.489 70.1056 159.4 69.4569C159.28 68.5852 160.54 67.978 160.423 67.1058C160.311 66.2611 159.164 66.1522 158.346 65.9029C157.584 65.6367 156.956 65.0857 156.595 64.3664C156.234 63.6472 156.168 62.8161 156.411 62.0492C155.526 63.2916 153.504 63.398 152.357 62.3915C151.209 61.3849 150.989 59.5586 151.678 58.1988C152.05 57.5309 152.576 56.9599 153.211 56.5324C153.847 56.1048 154.575 55.8328 155.336 55.7383C156.866 55.5655 158.413 55.8528 159.778 56.5634C159.869 55.6005 161.076 55.2102 162.046 55.2016C164.063 55.225 166.022 55.8741 167.651 57.0585C169.28 58.2429 170.497 59.9038 171.134 61.8099C172.326 65.6336 171.529 69.8251 168.196 72.0623L167.109 71.9464Z" fill="#1E1E1E"/>
<path d="M229.66 192H99.6997C99.6093 192 99.5225 191.964 99.4586 191.9C99.3946 191.837 99.3586 191.75 99.3586 191.66C99.3586 191.57 99.3946 191.484 99.4586 191.42C99.5225 191.356 99.6093 191.32 99.6997 191.32H229.66C229.75 191.32 229.837 191.356 229.901 191.42C229.965 191.484 230.001 191.57 230.001 191.66C230.001 191.75 229.965 191.837 229.901 191.9C229.837 191.964 229.75 192 229.66 192Z" fill="#3F3D56"/>
</g>
<defs>
<clipPath id="clip0_20_613">
<rect width="291" height="192" fill="white"/>
</clipPath>
</defs>
</svg>
