<svg width="291" height="239" viewBox="0 0 291 239" fill="none" xmlns="http://www.w3.org/2000/svg">
<g clip-path="url(#clip0_20_692)">
<path d="M232.435 24.8689C231.805 27.1993 232.529 30.8688 232.802 33.0442C233.094 35.3699 229.057 37.4513 226.747 37.5829C226.804 36.813 226.588 36.0478 226.136 35.4216C226.13 36.1663 225.977 36.9026 225.684 37.5876H206.409C203.981 33.0254 201.916 26.7905 204.146 20.3443C204.259 19.0496 204.752 17.8171 205.564 16.8015C206.376 15.7859 207.47 15.0324 208.709 14.6356L219.22 11.2763C223.365 11.2763 228.45 11.8636 230.742 14.9457C231.756 16.3648 232.435 17.9947 232.728 19.7133C233.022 21.4319 232.921 23.1945 232.435 24.8689Z" fill="#1E1E1E"/>
<path d="M250.891 226.47C251.234 226.482 251.573 226.389 251.862 226.203C252.151 226.016 252.375 225.746 252.505 225.428C252.634 225.11 252.663 224.76 252.587 224.425C252.51 224.09 252.333 223.787 252.078 223.556C252.034 223.389 252.003 223.269 251.959 223.101C252.28 222.264 252.843 221.542 253.578 221.027C254.312 220.512 255.183 220.228 256.081 220.211C256.978 220.194 257.859 220.445 258.613 220.932C259.366 221.419 259.957 222.119 260.309 222.943C262.34 227.569 264.958 232.353 263.728 237.481C272.005 219.52 268.92 197.306 256.289 182.134C252.82 180.268 249.991 176.922 249.226 173.012C250.939 173.574 253.055 172.166 251.754 170.382C251.191 169.7 250.622 169.024 250.059 168.343C256.481 161.381 264.315 172.152 257.262 181.533C259.626 184.436 261.68 187.578 263.39 190.907C262.968 187.358 263.397 183.761 264.639 180.41C265.901 177.286 268.297 174.642 270.403 171.932C272.964 168.63 278.313 170.091 278.702 174.247C276.317 175.055 276.039 178.509 278.78 178.955C278.137 186.7 273.143 193.859 266.204 197.319C268.847 204.509 269.926 212.179 269.367 219.817C270.513 210.885 280.081 208.629 286.749 205.02C287.173 204.743 287.668 204.595 288.175 204.594C288.682 204.593 289.178 204.74 289.603 205.016C290.027 205.292 290.363 205.685 290.567 206.148C290.772 206.611 290.837 207.124 290.755 207.623C289.834 208.007 288.953 208.482 288.126 209.041C287.738 209.306 287.442 209.685 287.278 210.125C287.115 210.566 287.092 211.046 287.212 211.499C287.332 211.953 287.59 212.359 287.95 212.661C288.311 212.963 288.755 213.146 289.224 213.185C285.925 221.567 277.245 227.257 268.274 227.31C267.448 231.06 266.234 234.713 264.651 238.211L251.337 238.338C251.288 238.191 251.244 238.038 251.199 237.891C252.433 237.957 253.669 237.871 254.881 237.637C251.584 233.813 249.044 231.87 250.89 226.47L250.891 226.47Z" fill="#F2F2F2"/>
<path d="M223.413 229.144H218.22L215.748 209.141H223.413V229.144Z" fill="#FFB6B6"/>
<path d="M226.154 238.129H222.429L221.765 234.618L220.062 238.129H210.185C209.712 238.129 209.251 237.978 208.869 237.698C208.488 237.418 208.206 237.023 208.065 236.572C207.924 236.12 207.932 235.636 208.086 235.189C208.241 234.742 208.534 234.356 208.924 234.087L216.811 228.647V225.097L225.107 225.592L226.154 238.129Z" fill="#1E1E1E"/>
<path d="M231.564 192.914L227.918 196.607L211.92 184.321L217.301 178.871L231.564 192.914Z" fill="#FFB6B6"/>
<path d="M239.896 197.273L237.281 199.922L234.311 197.929L235.619 201.605L228.685 208.629C228.352 208.966 227.921 209.188 227.453 209.262C226.986 209.337 226.507 209.26 226.086 209.043C225.665 208.827 225.325 208.481 225.114 208.058C224.904 207.634 224.835 207.154 224.917 206.689L226.575 197.26L224.044 194.768L230.221 189.215L239.896 197.273Z" fill="#1E1E1E"/>
<path d="M190.024 84.6976L205.731 59.74C206.394 58.6806 206.612 57.4037 206.34 56.1847C206.068 54.9658 205.327 53.9025 204.277 53.2244C203.734 52.8736 203.125 52.637 202.487 52.5289C201.849 52.4209 201.196 52.4437 200.567 52.596C199.938 52.7483 199.347 53.0269 198.83 53.4147C198.313 53.8026 197.88 54.2916 197.558 54.852L182.037 81.2764L171.929 96.9358C171.088 96.7891 170.222 96.9045 169.449 97.2664C168.676 97.6283 168.033 98.219 167.608 98.9584C167.183 99.6977 166.996 100.55 167.073 101.399C167.149 102.248 167.486 103.053 168.037 103.705C168.587 104.356 169.326 104.822 170.151 105.04C170.976 105.258 171.849 105.217 172.65 104.922C173.451 104.628 174.142 104.094 174.629 103.393C175.116 102.693 175.375 101.86 175.371 101.007L190.024 84.6976Z" fill="#FFB6B6"/>
<path d="M204.827 66.267L206.151 66.0176C205.973 65.693 205.898 65.3217 205.938 64.9536C205.977 64.5855 206.129 64.2382 206.372 63.9586C206.615 63.679 206.938 63.4805 207.297 63.3897C207.656 63.2989 208.035 63.3202 208.382 63.4508C206.786 61.7889 207.561 59.0526 208.587 56.9908C209.329 55.5006 210.163 54.0281 210.526 52.4038C211.078 49.938 210.367 46.9536 207.074 46.3632C205.728 46.1528 204.351 46.4313 203.192 47.1481C201.123 48.3693 200.657 47.8377 199.352 49.8035L198.607 51.1847C197.652 52.6799 196.511 54.0489 195.212 55.2593C194.284 56.1829 193.535 57.2709 193.005 58.4679C192.936 58.6161 192.833 58.7462 192.705 58.848C192.195 59.2413 191.503 59.2608 190.865 59.3446C190.06 59.4503 189.14 59.7905 189.161 60.787C189.172 61.0253 189.233 61.2585 189.34 61.4721C189.446 61.6858 189.595 61.8751 189.778 62.0283C193.175 64.9971 197.15 67.2321 201.454 68.5931C202.41 68.8948 203.484 69.1445 204.383 68.7019C205.282 68.2593 205.668 66.8121 204.827 66.267Z" fill="#009281"/>
<path d="M224.757 113.702L194.176 113.233L193.235 106.185L196.058 90.2102H220.052L224.757 113.702Z" fill="#FFB6B6"/>
<path d="M159.361 132.496H40.331C37.4622 132.493 34.7117 131.353 32.6831 129.328C30.6544 127.302 29.5134 124.555 29.5101 121.69V53.5623C29.5134 50.6972 30.6545 47.9505 32.6831 45.9246C34.7117 43.8987 37.4622 42.7591 40.331 42.7559H159.361C162.23 42.7591 164.98 43.8987 167.009 45.9246C169.038 47.9505 170.179 50.6972 170.182 53.5623V121.69C170.179 124.555 169.038 127.302 167.009 129.328C164.98 131.353 162.23 132.493 159.361 132.496Z" fill="white"/>
<path d="M159.361 132.496H40.331C37.4622 132.493 34.7117 131.353 32.6831 129.328C30.6544 127.302 29.5134 124.555 29.5101 121.69V53.5623C29.5134 50.6972 30.6545 47.9505 32.6831 45.9246C34.7117 43.8987 37.4622 42.7591 40.331 42.7559H159.361C162.23 42.7591 164.98 43.8987 167.009 45.9246C169.038 47.9505 170.179 50.6972 170.182 53.5623V121.69C170.179 124.555 169.038 127.302 167.009 129.328C164.98 131.353 162.23 132.493 159.361 132.496ZM40.331 43.6955C37.7116 43.6985 35.2003 44.739 33.3481 46.5887C31.4959 48.4384 30.454 50.9464 30.4511 53.5623V121.69C30.4541 124.306 31.4959 126.814 33.3481 128.663C35.2004 130.513 37.7116 131.554 40.331 131.557H159.361C161.981 131.554 164.492 130.513 166.344 128.663C168.196 126.814 169.238 124.306 169.241 121.69V53.5623C169.238 50.9464 168.196 48.4384 166.344 46.5887C164.492 44.739 161.981 43.6985 159.361 43.6955H40.331Z" fill="#E6E6E6"/>
<path d="M169.242 92.249H29.9802C29.8555 92.249 29.7358 92.1995 29.6476 92.1114C29.5593 92.0233 29.5098 91.9038 29.5098 91.7792C29.5098 91.6546 29.5593 91.5351 29.6476 91.4469C29.7358 91.3588 29.8555 91.3093 29.9802 91.3093H169.242C169.366 91.3093 169.486 91.3588 169.574 91.4469C169.662 91.5351 169.712 91.6546 169.712 91.7792C169.712 91.9038 169.662 92.0233 169.574 92.1114C169.486 92.1995 169.366 92.249 169.242 92.249Z" fill="#E6E6E6"/>
<path d="M158.891 22.0827C161.229 22.0827 163.125 20.1895 163.125 17.8541C163.125 15.5187 161.229 13.6255 158.891 13.6255C156.552 13.6255 154.656 15.5187 154.656 17.8541C154.656 20.1895 156.552 22.0827 158.891 22.0827Z" fill="#F2F2F2"/>
<path d="M4.23427 89.4114C6.5728 89.4114 8.46854 87.5182 8.46854 85.1828C8.46854 82.8474 6.5728 80.9542 4.23427 80.9542C1.89575 80.9542 0 82.8474 0 85.1828C0 87.5182 1.89575 89.4114 4.23427 89.4114Z" fill="#F2F2F2"/>
<path d="M91.2721 161.768C93.6106 161.768 95.5064 159.874 95.5064 157.539C95.5064 155.204 93.6106 153.31 91.2721 153.31C88.9336 153.31 87.0378 155.204 87.0378 157.539C87.0378 159.874 88.9336 161.768 91.2721 161.768Z" fill="#F2F2F2"/>
<path d="M65.6997 112.904H51.0001C50.8754 112.904 50.7557 112.854 50.6675 112.766C50.5792 112.678 50.5297 112.558 50.5297 112.434C50.5297 112.309 50.5792 112.19 50.6675 112.102C50.7557 112.013 50.8754 111.964 51.0001 111.964H65.6997C65.8245 111.964 65.9442 112.013 66.0324 112.102C66.1206 112.19 66.1702 112.309 66.1702 112.434C66.1702 112.558 66.1206 112.678 66.0324 112.766C65.9442 112.854 65.8245 112.904 65.6997 112.904Z" fill="#CCCCCC"/>
<path d="M65.6997 120.421H51.0001C50.8754 120.421 50.7557 120.372 50.6675 120.284C50.5792 120.195 50.5297 120.076 50.5297 119.951C50.5297 119.827 50.5792 119.707 50.6675 119.619C50.7557 119.531 50.8754 119.482 51.0001 119.482H65.6997C65.8245 119.482 65.9442 119.531 66.0324 119.619C66.1206 119.707 66.1702 119.827 66.1702 119.951C66.1702 120.076 66.1206 120.195 66.0324 120.284C65.9442 120.372 65.8245 120.421 65.6997 120.421Z" fill="#CCCCCC"/>
<path d="M146.151 112.904H131.451C131.327 112.904 131.207 112.854 131.119 112.766C131.03 112.678 130.981 112.558 130.981 112.434C130.981 112.309 131.03 112.19 131.119 112.102C131.207 112.013 131.327 111.964 131.451 111.964H146.151C146.276 111.964 146.395 112.013 146.484 112.102C146.572 112.19 146.621 112.309 146.621 112.434C146.621 112.558 146.572 112.678 146.484 112.766C146.395 112.854 146.276 112.904 146.151 112.904Z" fill="#CCCCCC"/>
<path d="M146.151 120.421H131.451C131.327 120.421 131.207 120.372 131.119 120.284C131.03 120.195 130.981 120.076 130.981 119.951C130.981 119.827 131.03 119.707 131.119 119.619C131.207 119.531 131.327 119.482 131.451 119.482H146.151C146.276 119.482 146.395 119.531 146.484 119.619C146.572 119.707 146.621 119.827 146.621 119.951C146.621 120.076 146.572 120.195 146.484 120.284C146.395 120.372 146.276 120.421 146.151 120.421Z" fill="#CCCCCC"/>
<path d="M119.334 112.904H104.634C104.51 112.904 104.39 112.854 104.302 112.766C104.213 112.678 104.164 112.558 104.164 112.434C104.164 112.309 104.213 112.19 104.302 112.102C104.39 112.013 104.51 111.964 104.634 111.964H119.334C119.459 111.964 119.578 112.013 119.667 112.102C119.755 112.19 119.804 112.309 119.804 112.434C119.804 112.558 119.755 112.678 119.667 112.766C119.578 112.854 119.459 112.904 119.334 112.904Z" fill="#CCCCCC"/>
<path d="M119.334 120.421H104.634C104.51 120.421 104.39 120.372 104.302 120.284C104.213 120.195 104.164 120.076 104.164 119.951C104.164 119.827 104.213 119.707 104.302 119.619C104.39 119.531 104.51 119.482 104.634 119.482H119.334C119.459 119.482 119.578 119.531 119.667 119.619C119.755 119.707 119.804 119.827 119.804 119.951C119.804 120.076 119.755 120.195 119.667 120.284C119.578 120.372 119.459 120.421 119.334 120.421Z" fill="#CCCCCC"/>
<path d="M92.5167 112.904H77.8172C77.6924 112.904 77.5727 112.854 77.4845 112.766C77.3962 112.678 77.3467 112.558 77.3467 112.434C77.3467 112.309 77.3962 112.19 77.4845 112.102C77.5727 112.013 77.6924 111.964 77.8172 111.964H92.5167C92.6415 111.964 92.7612 112.013 92.8494 112.102C92.9376 112.19 92.9872 112.309 92.9872 112.434C92.9872 112.558 92.9376 112.678 92.8494 112.766C92.7612 112.854 92.6415 112.904 92.5167 112.904Z" fill="#CCCCCC"/>
<path d="M92.5167 120.421H77.8172C77.6924 120.421 77.5727 120.372 77.4845 120.284C77.3962 120.195 77.3467 120.076 77.3467 119.951C77.3467 119.827 77.3962 119.707 77.4845 119.619C77.5727 119.531 77.6924 119.482 77.8172 119.482H92.5167C92.6415 119.482 92.7612 119.531 92.8494 119.619C92.9376 119.707 92.9872 119.827 92.9872 119.951C92.9872 120.076 92.9376 120.195 92.8494 120.284C92.7612 120.372 92.6415 120.421 92.5167 120.421Z" fill="#CCCCCC"/>
<path d="M193.235 105.715L192.294 118.401L174.542 150.158C173.69 151.573 173.316 153.223 173.475 154.866C173.635 156.509 174.321 158.057 175.43 159.28L203.269 184.472C203.269 184.472 208.742 184.651 208.281 187.234C207.82 189.817 210.745 189.695 210.745 189.695L214.037 192.07L215.818 178.541C209.833 165.195 200.957 161.123 193.235 154.966C193.235 154.966 196.491 154 195.804 152.88C195.117 151.76 197.275 151.685 197.275 151.685C197.275 151.685 198.707 151.493 198.794 150.452C198.881 149.411 200.269 149.253 200.269 149.253L208.058 141.423L228.521 140.484C228.521 140.484 237.18 118.819 222.875 104.775L193.235 105.715Z" fill="#1E1E1E"/>
<path d="M208.104 135.54L214.877 216.129L224.853 215.525L228.521 140.484L208.104 135.54Z" fill="#1E1E1E"/>
<path d="M208.59 39.418L220.01 38.8305L225.314 47.2007C225.314 47.2007 235.295 48.867 234.603 60.6116C233.911 72.3563 222.46 82.6623 222.46 82.6623L222.949 88.7784L222.099 91.2042L222.208 92.5664L223.368 94.0089L223.487 95.5008L222.46 97.8612L222.875 101.017C222.875 101.017 212.543 103.065 207.123 98.9868C201.704 94.9086 193.706 97.2579 193.706 97.2579L193.405 93.3706L194.972 91.272L194.097 88.5346L195.413 85.9017L196.099 77.5385C196.099 77.5385 188.591 66.2749 197.21 57.7913L200.669 51.9189L204.539 47.2034L208.59 39.418Z" fill="#009281"/>
<path d="M236.594 90.3533L235.753 60.8873C235.714 59.639 235.185 58.4562 234.28 57.5941C233.375 56.7321 232.167 56.2599 230.917 56.2794C230.27 56.2895 229.632 56.4311 229.041 56.6955C228.451 56.9598 227.921 57.3415 227.483 57.8172C227.045 58.2929 226.709 58.8527 226.495 59.4623C226.281 60.072 226.193 60.7189 226.238 61.3634L228.05 91.9447L228.368 110.573C227.587 110.918 226.931 111.495 226.49 112.225C226.049 112.955 225.844 113.803 225.902 114.654C225.961 115.504 226.28 116.316 226.816 116.979C227.353 117.643 228.081 118.125 228.901 118.36C229.722 118.596 230.595 118.574 231.402 118.296C232.21 118.019 232.912 117.5 233.414 116.811C233.916 116.121 234.193 115.294 234.207 114.441C234.222 113.589 233.974 112.752 233.496 112.046L236.594 90.3533Z" fill="#FFB6B6"/>
<path d="M238.636 66.8145C238.851 66.5955 238.989 66.3119 239.028 66.0071C239.067 65.7023 239.005 65.3932 238.85 65.1273C238.666 64.7956 238.591 64.4149 238.634 64.0382C238.643 63.9655 238.657 63.8934 238.676 63.8225C238.799 63.398 238.817 62.9501 238.729 62.517C238.642 62.0838 238.451 61.6782 238.173 61.3346C237.241 60.2169 236.791 58.5248 236.596 57.0164C236.383 55.3658 236.256 53.6789 235.654 52.1272C234.785 49.8889 232.708 47.8941 229.873 48.8488C228.673 49.2735 227.657 50.0982 226.995 51.1838C225.582 53.4351 225.566 56.1572 225.577 58.7615L225.068 57.7325C225.129 60.5767 224.614 63.404 223.555 66.0447C224.186 65.9222 224.633 66.7701 224.429 67.3796C224.225 67.9893 223.66 68.3899 223.177 68.8139C222.567 69.3484 221.991 70.1423 222.563 70.9591C222.706 71.1506 222.886 71.3107 223.093 71.4292C223.301 71.5478 223.53 71.6222 223.768 71.6479C228.244 72.2291 232.792 71.8795 237.127 70.6211C238.089 70.341 239.121 69.9521 239.622 69.0849C240.123 68.2176 239.638 66.8006 238.636 66.8145Z" fill="#009281"/>
<path d="M214.877 37.1177C220.853 37.1177 225.698 32.2795 225.698 26.3113C225.698 20.3431 220.853 15.5049 214.877 15.5049C208.901 15.5049 204.056 20.3431 204.056 26.3113C204.056 32.2795 208.901 37.1177 214.877 37.1177Z" fill="#FFB6B6"/>
<path d="M102.712 25.2014C109.68 25.2014 115.329 19.5599 115.329 12.6007C115.329 5.64153 109.68 0 102.712 0C95.7431 0 90.094 5.64153 90.094 12.6007C90.094 19.5599 95.7431 25.2014 102.712 25.2014Z" fill="#009281"/>
<path d="M102.268 17.6554C102.099 17.6554 101.932 17.616 101.78 17.5404C101.629 17.4647 101.497 17.3549 101.395 17.2196L98.7201 13.6572C98.6338 13.5428 98.571 13.4125 98.5352 13.2738C98.4994 13.1351 98.4914 12.9907 98.5116 12.8489C98.5317 12.7071 98.5797 12.5707 98.6527 12.4474C98.7257 12.3241 98.8223 12.2165 98.9371 12.1305C99.0518 12.0446 99.1824 11.9821 99.3213 11.9466C99.4603 11.9112 99.6049 11.9034 99.7468 11.9238C99.8888 11.9442 100.025 11.9923 100.149 12.0655C100.272 12.1386 100.38 12.2353 100.465 12.3501L102.216 14.6805L106.711 7.94653C106.872 7.70674 107.121 7.54043 107.405 7.48411C107.688 7.42778 107.982 7.48605 108.223 7.64612C108.463 7.80618 108.63 8.05497 108.687 8.33787C108.744 8.62078 108.686 8.91468 108.526 9.15508L103.176 17.1703C103.079 17.3152 102.949 17.4349 102.796 17.5192C102.643 17.6036 102.473 17.6502 102.298 17.655L102.268 17.6554Z" fill="white"/>
<path d="M126.873 48.5934H72.8189C71.5021 48.5934 70.2392 48.071 69.3081 47.1411C68.377 46.2113 67.8539 44.9501 67.8539 43.635C67.8539 42.32 68.377 41.0588 69.3081 40.1289C70.2392 39.1991 71.5021 38.6767 72.8189 38.6767H126.873C127.526 38.676 128.172 38.8038 128.775 39.0527C129.378 39.3016 129.926 39.6667 130.387 40.1272C130.849 40.5877 131.215 41.1345 131.465 41.7364C131.715 42.3383 131.843 42.9835 131.843 43.635C131.843 44.2866 131.715 44.9318 131.465 45.5337C131.215 46.1355 130.849 46.6824 130.387 47.1428C129.926 47.6033 129.378 47.9685 128.775 48.2174C128.172 48.4663 127.526 48.5941 126.873 48.5934Z" fill="#009281"/>
<path d="M290.443 238.856L170.304 239C170.156 238.999 170.014 238.94 169.91 238.835C169.805 238.73 169.747 238.588 169.747 238.441C169.747 238.293 169.805 238.151 169.91 238.046C170.014 237.941 170.156 237.882 170.304 237.881L290.443 237.737C290.591 237.737 290.733 237.797 290.837 237.902C290.942 238.006 291 238.148 291 238.296C291 238.444 290.942 238.586 290.837 238.691C290.733 238.796 290.591 238.855 290.443 238.856Z" fill="#CACACA"/>
<path d="M228.521 23.4922V25.8415H219.159C219.254 25.3879 219.254 24.9197 219.159 24.4661C219.064 24.0125 218.877 23.5834 218.608 23.2056C218.6 24.1251 218.371 25.0291 217.94 25.8415C212.526 27.4402 207.982 27.4095 204.259 25.8415C203.706 25.8415 203.176 25.6221 202.785 25.2317C202.394 24.8413 202.174 24.3118 202.174 23.7597C202.174 16.557 207.859 10.4879 215.07 10.3395C216.823 10.3024 218.566 10.6152 220.196 11.2596C221.827 11.9039 223.312 12.8668 224.564 14.0919C225.817 15.3169 226.813 16.7794 227.492 18.3936C228.171 20.0078 228.521 21.7412 228.521 23.4922Z" fill="#1E1E1E"/>
<path d="M104.316 63.8989H85.4966C84.9975 63.8989 84.5189 63.7009 84.1659 63.3484C83.813 62.996 83.6147 62.5179 83.6147 62.0195C83.6147 61.5211 83.813 61.043 84.1659 60.6906C84.5189 60.3381 84.9975 60.1401 85.4966 60.1401H104.316C104.815 60.1401 105.293 60.3381 105.646 60.6906C105.999 61.043 106.198 61.5211 106.198 62.0195C106.198 62.5179 105.999 62.996 105.646 63.3484C105.293 63.7009 104.815 63.8989 104.316 63.8989Z" fill="#CCCCCC"/>
<path d="M109.02 103.977H90.2015C89.7024 103.977 89.2237 103.779 88.8708 103.426C88.5178 103.074 88.3196 102.596 88.3196 102.097C88.3196 101.599 88.5178 101.121 88.8708 100.768C89.2237 100.416 89.7024 100.218 90.2015 100.218H109.02C109.52 100.218 109.998 100.416 110.351 100.768C110.704 101.121 110.902 101.599 110.902 102.097C110.902 102.596 110.704 103.074 110.351 103.426C109.998 103.779 109.52 103.977 109.02 103.977Z" fill="#CCCCCC"/>
<path d="M144.776 74.2355H85.0262C84.5271 74.2355 84.0484 74.0375 83.6955 73.685C83.3426 73.3326 83.1443 72.8545 83.1443 72.3561C83.1443 71.8577 83.3426 71.3796 83.6955 71.0272C84.0484 70.6747 84.5271 70.4767 85.0262 70.4767H144.776C145.276 70.4767 145.754 70.6747 146.107 71.0272C146.46 71.3796 146.658 71.8577 146.658 72.3561C146.658 72.8545 146.46 73.3326 146.107 73.685C145.754 74.0375 145.276 74.2355 144.776 74.2355Z" fill="#CCCCCC"/>
<path d="M63.1473 79.7885C70.1158 79.7885 75.7649 74.147 75.7649 67.1878C75.7649 60.2286 70.1158 54.5871 63.1473 54.5871C56.1788 54.5871 50.5297 60.2286 50.5297 67.1878C50.5297 74.147 56.1788 79.7885 63.1473 79.7885Z" fill="#E6E6E6"/>
</g>
<defs>
<clipPath id="clip0_20_692">
<rect width="291" height="239" fill="white"/>
</clipPath>
</defs>
</svg>
