<svg width="335" height="48" viewBox="0 0 335 48" fill="none" xmlns="http://www.w3.org/2000/svg">
<rect width="335" height="48" rx="8" fill="#D9D9D9" fill-opacity="0.3"/>
<path d="M38 19.9392H57.9143V15.5357C57.9143 15.344 57.8346 15.1685 57.6753 15.0092C57.5151 14.8491 57.3396 14.769 57.1488 14.769H38.7655C38.5746 14.769 38.3991 14.8491 38.239 15.0092C38.0797 15.1685 38 15.344 38 15.5357V19.9392ZM38 26.3541H57.9143V21.1839H38V26.3541ZM38.7655 32.769H57.1488C57.3396 32.769 57.5151 32.6889 57.6753 32.5288C57.8346 32.3695 57.9143 32.194 57.9143 32.0023V27.5987H38V32.0023C38 32.194 38.0797 32.3695 38.239 32.5288C38.3991 32.6889 38.5746 32.769 38.7655 32.769ZM40.203 18.3598V16.3484H42.2144V18.3598H40.203ZM40.203 24.7747V22.7633H42.2144V24.7747H40.203ZM40.203 31.1895V29.1782H42.2144V31.1895H40.203Z" fill="#D9EDEB"/>
<path d="M78.976 30L76.416 25.552H75.024V30H73.2V18.88H77.04C77.8933 18.88 78.6133 19.0293 79.2 19.328C79.7973 19.6267 80.24 20.0267 80.528 20.528C80.8267 21.0293 80.976 21.5893 80.976 22.208C80.976 22.9333 80.7627 23.5947 80.336 24.192C79.92 24.7787 79.2747 25.1787 78.4 25.392L81.152 30H78.976ZM75.024 24.096H77.04C77.7227 24.096 78.2347 23.9253 78.576 23.584C78.928 23.2427 79.104 22.784 79.104 22.208C79.104 21.632 78.9333 21.184 78.592 20.864C78.2507 20.5333 77.7333 20.368 77.04 20.368H75.024V24.096ZM91.3894 25.376C91.3894 25.7067 91.368 26.0053 91.3254 26.272H84.5894C84.6427 26.976 84.904 27.5413 85.3734 27.968C85.8427 28.3947 86.4187 28.608 87.1014 28.608C88.0827 28.608 88.776 28.1973 89.1814 27.376H91.1494C90.8827 28.1867 90.3974 28.8533 89.6934 29.376C89 29.888 88.136 30.144 87.1014 30.144C86.2587 30.144 85.5014 29.9573 84.8294 29.584C84.168 29.2 83.6454 28.6667 83.2614 27.984C82.888 27.2907 82.7014 26.4907 82.7014 25.584C82.7014 24.6773 82.8827 23.8827 83.2454 23.2C83.6187 22.5067 84.136 21.9733 84.7974 21.6C85.4694 21.2267 86.2374 21.04 87.1014 21.04C87.9334 21.04 88.6747 21.2213 89.3254 21.584C89.976 21.9467 90.4827 22.4587 90.8454 23.12C91.208 23.7707 91.3894 24.5227 91.3894 25.376ZM89.4854 24.8C89.4747 24.128 89.2347 23.5893 88.7654 23.184C88.296 22.7787 87.7147 22.576 87.0214 22.576C86.392 22.576 85.8534 22.7787 85.4054 23.184C84.9574 23.5787 84.6907 24.1173 84.6054 24.8H89.4854ZM92.5764 25.584C92.5764 24.6773 92.7577 23.8827 93.1204 23.2C93.4937 22.5067 94.0057 21.9733 94.6564 21.6C95.307 21.2267 96.0537 21.04 96.8964 21.04C97.963 21.04 98.843 21.296 99.5364 21.808C100.24 22.3093 100.715 23.0293 100.96 23.968H98.9924C98.8324 23.5307 98.5764 23.1893 98.2244 22.944C97.8724 22.6987 97.4297 22.576 96.8964 22.576C96.1497 22.576 95.5524 22.8427 95.1044 23.376C94.667 23.8987 94.4484 24.6347 94.4484 25.584C94.4484 26.5333 94.667 27.2747 95.1044 27.808C95.5524 28.3413 96.1497 28.608 96.8964 28.608C97.9524 28.608 98.651 28.144 98.9924 27.216H100.96C100.704 28.112 100.224 28.8267 99.5204 29.36C98.8164 29.8827 97.9417 30.144 96.8964 30.144C96.0537 30.144 95.307 29.9573 94.6564 29.584C94.0057 29.2 93.4937 28.6667 93.1204 27.984C92.7577 27.2907 92.5764 26.4907 92.5764 25.584ZM106.602 30.144C105.77 30.144 105.018 29.9573 104.346 29.584C103.674 29.2 103.146 28.6667 102.762 27.984C102.378 27.2907 102.186 26.4907 102.186 25.584C102.186 24.688 102.383 23.8933 102.778 23.2C103.173 22.5067 103.711 21.9733 104.394 21.6C105.077 21.2267 105.839 21.04 106.682 21.04C107.525 21.04 108.287 21.2267 108.97 21.6C109.653 21.9733 110.191 22.5067 110.586 23.2C110.981 23.8933 111.178 24.688 111.178 25.584C111.178 26.48 110.975 27.2747 110.57 27.968C110.165 28.6613 109.61 29.2 108.906 29.584C108.213 29.9573 107.445 30.144 106.602 30.144ZM106.602 28.56C107.071 28.56 107.509 28.448 107.914 28.224C108.33 28 108.666 27.664 108.922 27.216C109.178 26.768 109.306 26.224 109.306 25.584C109.306 24.944 109.183 24.4053 108.938 23.968C108.693 23.52 108.367 23.184 107.962 22.96C107.557 22.736 107.119 22.624 106.65 22.624C106.181 22.624 105.743 22.736 105.338 22.96C104.943 23.184 104.629 23.52 104.394 23.968C104.159 24.4053 104.042 24.944 104.042 25.584C104.042 26.5333 104.282 27.2693 104.762 27.792C105.253 28.304 105.866 28.56 106.602 28.56ZM114.805 22.464C115.072 22.016 115.424 21.6693 115.861 21.424C116.309 21.168 116.837 21.04 117.445 21.04V22.928H116.981C116.267 22.928 115.723 23.1093 115.349 23.472C114.987 23.8347 114.805 24.464 114.805 25.36V30H112.981V21.184H114.805V22.464ZM118.514 25.552C118.514 24.6667 118.695 23.8827 119.058 23.2C119.431 22.5173 119.933 21.9893 120.562 21.616C121.202 21.232 121.911 21.04 122.69 21.04C123.266 21.04 123.831 21.168 124.386 21.424C124.951 21.6693 125.399 22 125.73 22.416V18.16H127.57V30H125.73V28.672C125.431 29.0987 125.015 29.4507 124.482 29.728C123.959 30.0053 123.357 30.144 122.674 30.144C121.906 30.144 121.202 29.952 120.562 29.568C119.933 29.1733 119.431 28.6293 119.058 27.936C118.695 27.232 118.514 26.4373 118.514 25.552ZM125.73 25.584C125.73 24.976 125.602 24.448 125.346 24C125.101 23.552 124.775 23.2107 124.37 22.976C123.965 22.7413 123.527 22.624 123.058 22.624C122.589 22.624 122.151 22.7413 121.746 22.976C121.341 23.2 121.01 23.536 120.754 23.984C120.509 24.4213 120.386 24.944 120.386 25.552C120.386 26.16 120.509 26.6933 120.754 27.152C121.01 27.6107 121.341 27.9627 121.746 28.208C122.162 28.4427 122.599 28.56 123.058 28.56C123.527 28.56 123.965 28.4427 124.37 28.208C124.775 27.9733 125.101 27.632 125.346 27.184C125.602 26.7253 125.73 26.192 125.73 25.584ZM133.166 30.144C132.472 30.144 131.848 30.0213 131.294 29.776C130.75 29.52 130.318 29.1787 129.998 28.752C129.678 28.3147 129.507 27.8293 129.486 27.296H131.374C131.406 27.6693 131.582 27.984 131.902 28.24C132.232 28.4853 132.643 28.608 133.134 28.608C133.646 28.608 134.04 28.512 134.318 28.32C134.606 28.1173 134.75 27.8613 134.75 27.552C134.75 27.2213 134.59 26.976 134.27 26.816C133.96 26.656 133.464 26.48 132.782 26.288C132.12 26.1067 131.582 25.9307 131.166 25.76C130.75 25.5893 130.387 25.328 130.078 24.976C129.779 24.624 129.63 24.16 129.63 23.584C129.63 23.1147 129.768 22.688 130.046 22.304C130.323 21.9093 130.718 21.6 131.23 21.376C131.752 21.152 132.35 21.04 133.022 21.04C134.024 21.04 134.83 21.296 135.438 21.808C136.056 22.3093 136.387 22.9973 136.43 23.872H134.606C134.574 23.4773 134.414 23.1627 134.126 22.928C133.838 22.6933 133.448 22.576 132.958 22.576C132.478 22.576 132.11 22.6667 131.854 22.848C131.598 23.0293 131.47 23.2693 131.47 23.568C131.47 23.8027 131.555 24 131.726 24.16C131.896 24.32 132.104 24.448 132.35 24.544C132.595 24.6293 132.958 24.7413 133.438 24.88C134.078 25.0507 134.6 25.2267 135.006 25.408C135.422 25.5787 135.779 25.8347 136.078 26.176C136.376 26.5173 136.531 26.9707 136.542 27.536C136.542 28.0373 136.403 28.4853 136.126 28.88C135.848 29.2747 135.454 29.584 134.942 29.808C134.44 30.032 133.848 30.144 133.166 30.144Z" fill="white"/>
</svg>
