<svg width="24" height="24" viewBox="0 0 24 24" fill="none" xmlns="http://www.w3.org/2000/svg">
<path d="M2 7.93922H21.9143V3.53568C21.9143 3.34401 21.8346 3.16851 21.6753 3.0092C21.5151 2.84905 21.3396 2.76898 21.1488 2.76898H2.76545C2.57461 2.76898 2.39911 2.84905 2.23897 3.0092C2.07966 3.16851 2 3.34401 2 3.53568V7.93922ZM2 14.3541H21.9143V9.18386H2V14.3541ZM2.76545 20.769H21.1488C21.3396 20.769 21.5151 20.6889 21.6753 20.5288C21.8346 20.3695 21.9143 20.194 21.9143 20.0023V15.5987H2V20.0023C2 20.194 2.07966 20.3695 2.23897 20.5288C2.39911 20.6889 2.57461 20.769 2.76545 20.769ZM4.20301 6.35977V4.34843H6.21435V6.35977H4.20301ZM4.20301 12.7747V10.7633H6.21435V12.7747H4.20301ZM4.20301 19.1895V17.1782H6.21435V19.1895H4.20301Z" fill="#D9EDEB"/>
</svg>
