<svg width="26" height="24" viewBox="0 0 26 24" fill="none" xmlns="http://www.w3.org/2000/svg">
<path d="M18.4 7.4L13 2H5.8C5.32261 2 4.86477 2.18964 4.52721 2.52721C4.18964 2.86477 4 3.32261 4 3.8V18.2C4 18.6774 4.18964 19.1352 4.52721 19.4728C4.86477 19.8104 5.32261 20 5.8 20H16.6C17.0774 20 17.5352 19.8104 17.8728 19.4728C18.2104 19.1352 18.4 18.6774 18.4 18.2V7.4ZM8.5 17.3H6.7V9.2H8.5V17.3ZM12.1 17.3H10.3V11.9H12.1V17.3ZM15.7 17.3H13.9V14.6H15.7V17.3ZM13 8.3H12.1V3.8L16.6 8.3H13Z" fill="#D9EDEB"/>
</svg>
