<svg width="18" height="19" viewBox="0 0 18 19" fill="none" xmlns="http://www.w3.org/2000/svg">
<path d="M17.1616 12.024L16.0641 10.8649C16.2043 10.0202 16.1864 9.15683 16.0114 8.31863L17.0826 7.15962C17.1658 7.06697 17.2213 6.95291 17.2431 6.83033C17.2648 6.70775 17.2518 6.58154 17.2055 6.46596C16.7613 5.368 16.1049 4.36844 15.2738 3.52453C15.1926 3.44332 15.0913 3.38511 14.9803 3.3558C14.8692 3.32649 14.7524 3.32715 14.6416 3.3577L13.026 3.77038C12.5286 3.4127 11.9889 3.11779 11.4192 2.89234L11.0241 1.38211C10.9948 1.25962 10.93 1.14849 10.8378 1.0626C10.7457 0.976712 10.6303 0.919874 10.5061 0.899184C9.95895 0.796513 9.40324 0.746529 8.84657 0.749917C8.15002 0.752839 7.45666 0.844303 6.78318 1.02211C6.67079 1.05036 6.56816 1.10856 6.48621 1.19051C6.40426 1.27245 6.34607 1.37508 6.31782 1.48747L5.89636 3.0416C5.42519 3.25082 4.97777 3.50985 4.56173 3.81428L2.9637 3.41916C2.8515 3.38983 2.73344 3.39149 2.62211 3.42396C2.51078 3.45643 2.41035 3.5185 2.33151 3.60355C1.45854 4.51045 0.790769 5.59445 0.373478 6.78206C0.333011 6.89685 0.324709 7.02052 0.349471 7.13969C0.374233 7.25886 0.431117 7.36898 0.513965 7.45815L1.6203 8.60838C1.56428 8.9775 1.53493 9.35016 1.53249 9.7235C1.53249 9.98691 1.53249 10.2503 1.57639 10.5137L0.426161 11.7957C0.348754 11.8809 0.295047 11.9849 0.270397 12.0974C0.245746 12.2099 0.251014 12.3268 0.285674 12.4366C0.646496 13.5976 1.24448 14.671 2.04176 15.5888C2.12194 15.6831 2.22708 15.7529 2.3451 15.7901C2.46313 15.8274 2.58927 15.8307 2.70907 15.7995L4.2193 15.4132C4.74773 15.8585 5.3396 16.2225 5.97538 16.4932L6.4144 18.0649C6.44822 18.1788 6.51148 18.2818 6.59781 18.3635C6.68413 18.4452 6.79047 18.5027 6.9061 18.5302C7.53917 18.6734 8.18717 18.7471 8.83779 18.7498C9.35584 18.7445 9.87213 18.6944 10.3831 18.6005C10.5044 18.5791 10.6171 18.5241 10.7087 18.4419C10.8003 18.3596 10.867 18.2534 10.9012 18.1351L11.3139 16.6512C12.072 16.38 12.7786 15.9822 13.4036 15.4747L14.949 15.8259C15.0649 15.8528 15.1859 15.8474 15.2989 15.8102C15.412 15.7731 15.5126 15.7056 15.5899 15.6151C16.3596 14.7605 16.956 13.7645 17.346 12.6825C17.3775 12.5663 17.377 12.4437 17.3446 12.3278C17.3121 12.2119 17.2489 12.1069 17.1616 12.024ZM8.91682 13.1391C8.47308 13.1474 8.03213 13.0673 7.61965 12.9035C7.20717 12.7398 6.83139 12.4955 6.51422 12.1851C6.19705 11.8747 5.94481 11.5042 5.77221 11.0954C5.59961 10.6865 5.51009 10.2474 5.50887 9.80354C5.50765 9.35974 5.59474 8.92012 5.76509 8.5103C5.93543 8.10049 6.18562 7.72866 6.50108 7.41649C6.81653 7.10431 7.19095 6.85802 7.60253 6.69197C8.0141 6.52592 8.45461 6.44342 8.89838 6.44928C9.78562 6.44695 10.6374 6.79717 11.2665 7.4229C11.8955 8.04862 12.2502 8.8986 12.2525 9.78584C12.2548 10.6731 11.9046 11.5249 11.2789 12.1539C10.6532 12.7829 9.80318 13.1376 8.91594 13.14" fill="#D9EDEB"/>
</svg>
