<svg width="24" height="24" viewBox="0 0 24 24" fill="none" xmlns="http://www.w3.org/2000/svg">
<path d="M20.1616 14.024L19.0641 12.8649C19.2043 12.0202 19.1864 11.1568 19.0114 10.3186L20.0826 9.15962C20.1658 9.06697 20.2213 8.95291 20.2431 8.83033C20.2648 8.70775 20.2518 8.58154 20.2055 8.46596C19.7613 7.368 19.1049 6.36844 18.2738 5.52453C18.1926 5.44332 18.0913 5.38511 17.9803 5.3558C17.8692 5.32649 17.7524 5.32715 17.6416 5.3577L16.026 5.77038C15.5286 5.4127 14.9889 5.11779 14.4192 4.89234L14.0241 3.38211C13.9948 3.25962 13.93 3.14849 13.8378 3.0626C13.7457 2.97671 13.6303 2.91987 13.5061 2.89918C12.9589 2.79651 12.4032 2.74653 11.8466 2.74992C11.15 2.75284 10.4567 2.8443 9.78318 3.02211C9.67078 3.05036 9.56816 3.10856 9.48621 3.19051C9.40426 3.27245 9.34607 3.37508 9.31782 3.48747L8.89636 5.0416C8.42519 5.25082 7.97777 5.50985 7.56173 5.81428L5.9637 5.41916C5.8515 5.38983 5.73344 5.39149 5.62211 5.42396C5.51078 5.45643 5.41035 5.5185 5.33151 5.60355C4.45854 6.51045 3.79077 7.59445 3.37348 8.78206C3.33301 8.89685 3.32471 9.02052 3.34947 9.13969C3.37423 9.25886 3.43112 9.36898 3.51396 9.45815L4.6203 10.6084C4.56428 10.9775 4.53493 11.3502 4.53249 11.7235C4.53249 11.9869 4.53249 12.2503 4.57639 12.5137L3.42616 13.7957C3.34875 13.8809 3.29505 13.9849 3.2704 14.0974C3.24575 14.2099 3.25101 14.3268 3.28567 14.4366C3.6465 15.5976 4.24448 16.671 5.04176 17.5888C5.12194 17.6831 5.22708 17.7529 5.3451 17.7901C5.46313 17.8274 5.58927 17.8307 5.70907 17.7995L7.2193 17.4132C7.74773 17.8585 8.3396 18.2225 8.97538 18.4932L9.4144 20.0649C9.44822 20.1788 9.51148 20.2818 9.59781 20.3635C9.68413 20.4452 9.79047 20.5027 9.9061 20.5302C10.5392 20.6734 11.1872 20.7471 11.8378 20.7498C12.3558 20.7445 12.8721 20.6944 13.3831 20.6005C13.5044 20.5791 13.6171 20.5241 13.7087 20.4419C13.8003 20.3596 13.867 20.2534 13.9012 20.1351L14.3139 18.6512C15.072 18.38 15.7786 17.9822 16.4036 17.4747L17.949 17.8259C18.0649 17.8528 18.1859 17.8474 18.2989 17.8102C18.412 17.7731 18.5126 17.7056 18.5899 17.6151C19.3596 16.7605 19.956 15.7645 20.346 14.6825C20.3775 14.5663 20.377 14.4437 20.3446 14.3278C20.3121 14.2119 20.2489 14.1069 20.1616 14.024ZM11.9168 15.1391C11.4731 15.1474 11.0321 15.0673 10.6197 14.9035C10.2072 14.7398 9.83139 14.4955 9.51422 14.1851C9.19705 13.8747 8.94481 13.5042 8.77221 13.0954C8.59961 12.6865 8.51009 12.2474 8.50887 11.8035C8.50765 11.3597 8.59474 10.9201 8.76509 10.5103C8.93543 10.1005 9.18562 9.72866 9.50108 9.41649C9.81653 9.10431 10.191 8.85802 10.6025 8.69197C11.0141 8.52592 11.4546 8.44342 11.8984 8.44928C12.7856 8.44695 13.6374 8.79717 14.2665 9.4229C14.8955 10.0486 15.2502 10.8986 15.2525 11.7858C15.2548 12.6731 14.9046 13.5249 14.2789 14.1539C13.6532 14.7829 12.8032 15.1376 11.9159 15.14" fill="#D9EDEB"/>
</svg>
