<svg width="291" height="246" viewBox="0 0 291 246" fill="none" xmlns="http://www.w3.org/2000/svg">
<g clip-path="url(#clip0_20_524)">
<path d="M236.997 118.729C236.997 122.185 236.851 125.607 236.561 128.994C236.333 131.637 236.021 134.257 235.626 136.853C235.207 139.602 234.692 142.318 234.083 145V145.003C233.685 146.769 233.248 148.52 232.772 150.257C231.39 155.305 229.671 160.255 227.628 165.073C227.183 166.121 226.725 167.162 226.251 168.196C224.461 172.111 222.456 175.924 220.246 179.617C214.049 189.99 206.312 199.357 197.303 207.398C196.328 208.267 195.339 209.121 194.337 209.961C173.065 227.766 146.216 237.5 118.498 237.457C53.0527 237.457 0 184.301 0 118.729C0 53.1558 53.0527 -3.60512e-05 118.498 -3.60512e-05C145.262 -0.042318 171.244 9.03444 192.18 25.74C193.161 26.5191 194.13 27.3158 195.087 28.13C199.755 32.0968 204.112 36.4176 208.119 41.0541H208.122C226.784 62.6078 237.039 90.1948 236.997 118.729Z" fill="#F2F2F2"/>
<path d="M34.9805 139.238C23.6922 132.506 15.1722 119.925 16.2783 106.81C26.5986 116.707 40.0801 122.627 54.3375 123.523C59.8373 123.849 65.9882 123.638 70.0366 127.382C72.5557 129.711 73.7283 133.218 73.9206 136.648C74.1129 140.077 73.4273 143.488 72.7452 146.854L72.9799 147.679C59.8436 147.728 46.2689 145.969 34.9805 139.238Z" fill="#E6E6E6"/>
<path d="M16.5536 106.796C21.0765 116.703 28.6001 124.931 38.0555 130.31C40.0883 131.45 42.2493 132.429 44.5458 132.883C46.7877 133.309 49.1024 133.125 51.2494 132.351C53.2658 131.67 55.2496 130.739 57.3961 130.56C59.6587 130.372 61.7533 131.247 63.399 132.779C65.4126 134.653 66.634 137.141 67.744 139.615C68.9764 142.362 70.2131 145.234 72.5761 147.21C72.8624 147.449 72.475 147.88 72.1891 147.641C68.078 144.204 67.4069 138.449 64.1207 134.401C62.5872 132.512 60.4764 131.075 57.9688 131.113C55.776 131.146 53.7295 132.104 51.6939 132.812C49.5564 133.554 47.4151 133.903 45.1585 133.577C42.8502 133.242 40.6464 132.346 38.5935 131.263C33.9566 128.772 29.7393 125.567 26.0962 121.764C21.9144 117.446 18.5004 112.444 16.0021 106.973C15.8476 106.634 16.4001 106.46 16.5536 106.796Z" fill="white"/>
<path d="M34.909 128.757C33.7929 130.224 32.1927 131.246 30.3942 131.64C28.5957 132.034 26.7159 131.775 25.0906 130.908C24.7624 130.732 25.0206 130.212 25.3493 130.389C26.8613 131.199 28.6123 131.44 30.2864 131.07C31.9604 130.699 33.4472 129.742 34.4784 128.369C34.7028 128.072 35.1322 128.461 34.909 128.757Z" fill="white"/>
<path d="M50.2724 132.831C49.8026 129.09 47.9428 125.664 45.0637 123.235C44.7782 122.995 45.1656 122.564 45.4507 122.804C48.442 125.336 50.3702 128.906 50.8505 132.8C50.896 133.172 50.3176 133.201 50.2724 132.831Z" fill="white"/>
<path d="M22.6324 117.174C23.1823 116.696 23.6052 116.09 23.8632 115.408C24.1212 114.726 24.2061 113.991 24.1104 113.268C24.0602 112.898 24.6387 112.869 24.6886 113.237C24.7906 114.036 24.6958 114.848 24.4124 115.602C24.1291 116.356 23.6658 117.029 23.063 117.562C23.0104 117.617 22.9389 117.65 22.863 117.654C22.787 117.658 22.7124 117.633 22.6542 117.584C22.5975 117.532 22.5633 117.46 22.5593 117.383C22.5552 117.307 22.5815 117.231 22.6324 117.174Z" fill="white"/>
<path d="M52.8179 81.4018C52.8559 81.6322 52.8938 81.8627 52.9361 82.0953C53.4617 85.1905 54.2375 88.2379 55.2557 91.2073C55.3308 91.4381 55.4103 91.6709 55.4919 91.8991C58.0211 99.0268 61.849 105.622 66.7812 111.35C68.7459 113.627 70.8807 115.751 73.167 117.704C76.3248 120.401 79.9627 123.073 81.9873 126.555C82.2026 126.916 82.3953 127.29 82.5645 127.674L73.9658 147.328C73.9239 147.363 73.8863 147.4 73.8443 147.435L73.5368 148.235C73.4119 148.143 73.2843 148.044 73.1593 147.952C73.0866 147.898 73.0158 147.841 72.9431 147.787C72.8953 147.75 72.8475 147.713 72.8022 147.683C72.7862 147.67 72.7703 147.658 72.7588 147.648C72.7135 147.617 72.6747 147.584 72.6339 147.555C71.9191 147.006 71.207 146.451 70.4974 145.89C70.493 145.888 70.493 145.888 70.4904 145.881C65.0949 141.592 60.0095 136.814 55.8095 131.415C55.6832 131.252 55.5523 131.088 55.4299 130.917C53.5502 128.472 51.8731 125.878 50.4152 123.16C49.6217 121.669 48.904 120.139 48.265 118.575C46.6215 114.532 45.623 110.254 45.3061 105.9C44.6757 97.2195 46.823 88.4337 52.3879 81.8971C52.5304 81.7299 52.671 81.567 52.8179 81.4018Z" fill="#E6E6E6"/>
<path d="M53.0474 81.5554C50.7056 92.194 51.7689 103.302 56.0863 113.3C57.0243 115.437 58.1614 117.522 59.7221 119.27C61.2564 120.962 63.215 122.212 65.3943 122.889C67.4137 123.562 69.5569 124.015 71.378 125.167C73.2975 126.382 74.4444 128.344 74.8379 130.56C75.3194 133.271 74.7999 135.994 74.1995 138.639C73.5329 141.576 72.794 144.616 73.4937 147.618C73.5784 147.982 73.01 148.093 72.9254 147.729C71.7081 142.505 74.631 137.505 74.4395 132.29C74.3501 129.857 73.5284 127.436 71.5034 125.954C69.7327 124.658 67.5229 124.188 65.4724 123.525C63.3193 122.829 61.3999 121.816 59.7946 120.194C58.1524 118.534 56.9315 116.489 55.9432 114.386C53.7374 109.6 52.2964 104.497 51.6728 99.2624C50.9281 93.2925 51.2082 87.2391 52.5008 81.3639C52.581 81.0003 53.1271 81.1941 53.0474 81.5554Z" fill="white"/>
<path d="M54.507 110.163C52.7344 110.661 50.8428 110.511 49.17 109.741C47.4972 108.971 46.1522 107.63 45.3751 105.957C45.2191 105.618 45.7374 105.359 45.8936 105.699C46.6144 107.257 47.8674 108.506 49.4265 109.221C50.9857 109.935 52.7483 110.067 54.3962 109.593C54.7544 109.491 54.8632 110.061 54.507 110.163Z" fill="white"/>
<path d="M64.3257 122.683C66.1988 119.413 66.7727 115.555 65.9331 111.879C65.8496 111.515 66.418 111.405 66.5014 111.768C67.368 115.595 66.7625 119.608 64.8059 123.007C64.6192 123.331 64.14 123.006 64.3257 122.683Z" fill="white"/>
<path d="M51.665 93.5083C52.3909 93.4588 53.0932 93.2294 53.7088 92.8407C54.3244 92.452 54.8341 91.9163 55.1919 91.2815C55.3745 90.9554 55.8535 91.2816 55.6721 91.6055C55.2735 92.305 54.7099 92.8961 54.0307 93.327C53.3515 93.7579 52.5774 94.0156 51.7758 94.0776C51.7007 94.0898 51.6239 94.0729 51.5608 94.0304C51.4977 93.9878 51.4532 93.9228 51.4363 93.8485C51.422 93.773 51.438 93.695 51.4808 93.6313C51.5236 93.5676 51.5898 93.5233 51.665 93.5083Z" fill="white"/>
<path d="M82.0847 27.5178L96.5884 197.631L67.5811 199.817V29.6822C71.0376 27.3905 75.9993 27.032 82.0847 27.5178Z" fill="#CCCCCC"/>
<path d="M153.678 27.5178L139.174 197.631L168.181 199.817V29.6822C164.725 27.3905 159.763 27.032 153.678 27.5178Z" fill="#CCCCCC"/>
<path d="M163.838 206.848H71.6157C70.137 206.846 68.7192 206.257 67.6736 205.209C66.6279 204.161 66.0397 202.741 66.0381 201.259V32.1788C66.0398 30.6971 66.628 29.2767 67.6736 28.229C68.7193 27.1813 70.137 26.592 71.6157 26.5903H163.838C165.317 26.592 166.734 27.1813 167.78 28.229C168.826 29.2767 169.414 30.6971 169.415 32.1788V201.259C169.414 202.741 168.826 204.161 167.78 205.209C166.734 206.257 165.317 206.846 163.838 206.848ZM71.6157 28.4454C70.6279 28.4465 69.6807 28.8402 68.9822 29.5401C68.2836 30.24 67.8907 31.189 67.8896 32.1788V201.259C67.8907 202.249 68.2836 203.198 68.9822 203.898C69.6807 204.598 70.6278 204.991 71.6157 204.992H163.838C164.826 204.991 165.773 204.598 166.471 203.898C167.17 203.198 167.563 202.249 167.564 201.259V32.1788C167.563 31.189 167.17 30.24 166.471 29.5401C165.773 28.8402 164.826 28.4465 163.838 28.4454L71.6157 28.4454Z" fill="#CCCCCC"/>
<path d="M168.49 54.7265H66.9639V56.5816H168.49V54.7265Z" fill="#CCCCCC"/>
<path d="M168.49 85.6454H66.9639V87.5005H168.49V85.6454Z" fill="#CCCCCC"/>
<path d="M99.9099 27.5178H98.0583V111.926H99.9099V27.5178Z" fill="#CCCCCC"/>
<path d="M137.395 27.5178H135.544V111.926H137.395V27.5178Z" fill="#CCCCCC"/>
<path d="M180.062 211.949H58.4777C56.2679 211.949 54.1486 211.07 52.5861 209.504C51.0236 207.938 50.1458 205.815 50.1458 203.601C50.1458 201.387 51.0236 199.264 52.5861 197.698C54.1486 196.132 56.2679 195.253 58.4777 195.253H180.062C182.272 195.253 184.391 196.132 185.953 197.698C187.516 199.264 188.394 201.387 188.394 203.601C188.394 205.815 187.516 207.938 185.953 209.504C184.391 211.07 182.272 211.949 180.062 211.949Z" fill="#CCCCCC"/>
<path d="M168.49 107.598H67.5811V113.782H168.49V107.598Z" fill="#CCCCCC"/>
<path d="M100.197 127.278L100.069 127.216C93.1905 123.887 84.1823 123.89 70.8604 127.227L70.7181 127.263L70.6755 127.122C69.2662 122.492 67.6698 117.248 70.6689 114.668C70.7109 107.098 77.3388 100.95 85.4798 100.95C93.6191 100.95 100.246 107.094 100.291 114.663C104.752 118.081 102.626 123.131 100.269 127.155L100.197 127.278Z" fill="#1E1E1E"/>
<path d="M142.478 111.067C142.354 111.68 142.098 112.259 141.727 112.763C141.357 113.267 140.88 113.683 140.332 113.982C139.783 114.281 139.176 114.456 138.552 114.494C137.929 114.533 137.305 114.434 136.723 114.204L112.414 138.681L110.245 131.081L134.389 108.351C134.838 107.398 135.621 106.644 136.588 106.231C137.555 105.818 138.64 105.774 139.637 106.109C140.634 106.444 141.474 107.134 141.998 108.047C142.521 108.961 142.692 110.036 142.478 111.067Z" fill="#FFB6B6"/>
<path d="M82.3959 134.631C82.3959 134.631 80.1903 139.639 85.6325 142.727C91.0747 145.815 110.095 141.549 113.181 140.953C116.268 140.357 127.795 123.073 127.795 123.073L126.165 114.597L110.877 127.894L82.3959 134.631Z" fill="#009281"/>
<path d="M78.3817 162.324L78.6903 168.199C78.6903 168.199 77.7794 173.403 78.5285 174.526C79.272 175.643 99.559 175.784 99.559 175.784C99.559 175.784 100.899 168.544 102.054 162.207L78.3817 162.324Z" fill="#FFB6B6"/>
<path d="M136.709 239.999L140.951 239.141L139.737 221.976L133.477 223.243L136.709 239.999Z" fill="#FFB6B6"/>
<path d="M142.785 217.662L146.727 215.886L141.613 199.463L135.793 202.085L142.785 217.662Z" fill="#FFB6B6"/>
<path d="M146.219 208.409L138.795 212.621L120.486 183.142C107.633 191.818 95.0638 195.973 82.3933 198.19C78.1095 198.954 73.7418 198.567 72.9194 194.199C72.881 193.994 72.8503 193.789 72.8275 193.583C72.3216 188.811 78.2458 182.694 78.9988 176.856L95.2122 175.881L97.2116 178.449L115.962 166.899C119.733 164.577 124.692 165.833 127.039 169.705C127.163 169.91 127.278 170.119 127.384 170.334L146.219 208.409Z" fill="#1E1E1E"/>
<path d="M141.675 228.239L133.18 229.03L117.778 197.468C102.504 200.1 88.0944 200.943 75.6308 197.759C71.411 196.696 68.8315 192.33 69.8695 188.008C69.918 187.806 69.9741 187.606 70.0377 187.409C71.5294 182.849 75.434 179.622 78.5103 174.607L100.981 174.949L98.471 183.625L120.3 180.795C124.689 180.226 128.698 183.41 129.254 187.906C129.283 188.143 129.303 188.382 129.312 188.621L141.675 228.239Z" fill="#1E1E1E"/>
<path d="M87.1555 122.791C92.1948 122.791 96.2798 118.698 96.2798 113.649C96.2798 108.6 92.1948 104.507 87.1555 104.507C82.1163 104.507 78.0312 108.6 78.0312 113.649C78.0312 118.698 82.1163 122.791 87.1555 122.791Z" fill="#FFB6B6"/>
<path d="M81.8065 126.091L90.1726 127.077C90.5254 127.119 90.8565 127.269 91.1197 127.509C91.3829 127.748 91.5651 128.063 91.641 128.411L92.9715 134.511L101.265 144.297C101.265 144.297 104.244 149.892 103.127 156.233C102.01 162.574 101.519 167.286 101.519 167.286C101.519 167.286 79.271 175.644 78.5264 174.525C77.7819 173.406 77.5402 168.323 77.5402 168.323L74.562 135.125C74.562 135.125 77.9125 129.53 79.7739 129.53C80.9753 129.49 80.8212 126.781 81.8065 126.091Z" fill="#009281"/>
<path d="M101.745 169.327C102.918 169.327 103.869 168.183 103.869 166.773C103.869 165.362 102.918 164.219 101.745 164.219C100.572 164.219 99.6208 165.362 99.6208 166.773C99.6208 168.183 100.572 169.327 101.745 169.327Z" fill="#009281"/>
<path d="M134.605 235.58L141.071 232.333L142.289 235.182L150.466 236.838C150.87 236.919 151.237 237.128 151.514 237.434C151.791 237.74 151.963 238.126 152.005 238.537C152.048 238.947 151.958 239.361 151.749 239.716C151.54 240.072 151.223 240.352 150.845 240.515L142.944 243.908L140.377 241.675L141.051 244.721L138.072 246L134.605 235.58Z" fill="#1E1E1E"/>
<path d="M140.934 216.296L147.342 212.936L148.611 215.762L156.815 217.274C157.22 217.349 157.591 217.551 157.873 217.852C158.156 218.153 158.334 218.536 158.384 218.946C158.433 219.355 158.351 219.77 158.148 220.13C157.946 220.489 157.634 220.775 157.258 220.944L149.419 224.475L146.813 222.288L147.54 225.322L144.584 226.654L140.934 216.296Z" fill="#1E1E1E"/>
<path d="M81.9426 110.781C79.5321 110.785 77.1793 110.041 75.2074 108.652L75.1416 108.606V108.525C75.1442 106.189 76.0717 103.949 77.7205 102.297C79.3692 100.645 81.6047 99.7161 83.9364 99.7134H87.6395C89.9712 99.7161 92.2066 100.645 93.8554 102.297C95.5042 103.949 96.4316 106.189 96.4343 108.525C96.4318 109.06 96.2211 109.573 95.847 109.954C95.4729 110.335 94.965 110.555 94.4314 110.567L82.1507 110.779C82.0814 110.78 82.0118 110.781 81.9426 110.781Z" fill="#1E1E1E"/>
<path d="M97.0512 106.833C98.232 106.15 98.4293 104.278 97.492 102.651C96.5546 101.024 94.8375 100.259 93.6568 100.942C92.476 101.625 92.2787 103.498 93.216 105.124C94.1534 106.751 95.8705 107.516 97.0512 106.833Z" fill="#1E1E1E"/>
<path d="M78.5844 105.018C79.91 103.69 80.2031 101.83 79.239 100.864C78.2749 99.8983 76.4188 100.192 75.0931 101.52C73.7675 102.848 73.4744 104.708 74.4385 105.674C75.4026 106.64 77.2588 106.346 78.5844 105.018Z" fill="#1E1E1E"/>
<path d="M159.336 188.605H150.229C150.024 188.605 149.821 188.649 149.634 188.736C149.448 188.822 149.282 188.948 149.15 189.105C148.814 189.044 148.468 189.062 148.141 189.16C147.813 189.258 147.514 189.433 147.267 189.669C147.02 189.906 146.833 190.197 146.72 190.52C146.608 190.843 146.573 191.189 146.619 191.528C146.666 191.867 146.792 192.19 146.987 192.471C147.182 192.752 147.441 192.982 147.742 193.143C148.044 193.304 148.379 193.391 148.72 193.397C149.062 193.404 149.4 193.329 149.707 193.178L150.462 195.638C150.552 195.929 150.732 196.184 150.977 196.365C151.222 196.547 151.518 196.644 151.822 196.644H157.744C158.048 196.644 158.344 196.547 158.589 196.365C158.834 196.184 159.014 195.929 159.104 195.638L160.697 190.451C160.762 190.237 160.777 190.012 160.739 189.792C160.702 189.572 160.613 189.364 160.481 189.184C160.349 189.005 160.176 188.859 159.978 188.758C159.779 188.658 159.559 188.605 159.336 188.605ZM148.765 192.779C148.356 192.779 147.964 192.617 147.674 192.327C147.385 192.037 147.222 191.643 147.222 191.233C147.222 190.823 147.385 190.43 147.674 190.14C147.964 189.85 148.356 189.688 148.765 189.688C148.794 189.688 148.82 189.694 148.848 189.696C148.786 189.945 148.794 190.206 148.869 190.451L149.521 192.573C149.291 192.707 149.031 192.778 148.765 192.779Z" fill="#3F3D56"/>
<path d="M118.669 181.894C118.047 181.951 117.42 181.872 116.832 181.66C116.244 181.449 115.71 181.111 115.266 180.67C114.823 180.229 114.481 179.697 114.266 179.109C114.05 178.522 113.966 177.894 114.018 177.271L83.6411 160.961L90.2853 156.698L118.945 173.351C119.985 173.509 120.93 174.043 121.603 174.853C122.275 175.663 122.628 176.692 122.594 177.745C122.56 178.798 122.142 179.802 121.418 180.567C120.695 181.331 119.717 181.803 118.669 181.894Z" fill="#FFB6B6"/>
<path d="M78.901 130.987C78.901 130.987 73.4802 130.307 72.0889 136.416C70.6976 142.526 80.2344 159.558 81.6895 162.349C83.1446 165.141 102.977 171.246 102.977 171.246L110.613 167.249L93.5144 156.391L78.901 130.987Z" fill="#009281"/>
<path d="M117.11 105.743H118.961C119.861 105.743 120.725 106.101 121.361 106.739C121.998 107.377 122.356 108.242 122.356 109.144H113.715C113.715 108.242 114.073 107.377 114.709 106.739C115.346 106.101 116.209 105.743 117.11 105.743Z" fill="#CCCCCC"/>
<path d="M58.3978 42.2864C68.5284 42.2864 76.7409 34.058 76.7409 23.9077C76.7409 13.7573 68.5284 5.52887 58.3978 5.52887C48.2672 5.52887 40.0547 13.7573 40.0547 23.9077C40.0547 34.058 48.2672 42.2864 58.3978 42.2864Z" fill="#FFA23A"/>
<path d="M114.56 22.9499C109.706 17.8475 104.068 13.1928 97.3934 10.7331C95.5342 10.045 93.6065 9.5596 91.6436 9.28533C91.6278 9.28317 91.6128 9.28637 91.5972 9.28509C91.5652 9.27685 91.5328 9.27048 91.5002 9.26602C88.7548 8.9156 85.9682 9.08416 83.2849 9.76296C81.9726 10.0929 80.6925 10.5397 79.4597 11.0981C78.2225 11.7028 77.0238 12.3835 75.8704 13.1362C73.429 14.6004 70.7409 15.6052 67.9389 16.1009C66.5324 16.3546 65.1078 16.4947 63.6789 16.5198C62.4391 16.5447 61.2699 16.5879 60.0952 17.0366C58.8404 17.5094 57.7133 18.2695 56.8037 19.2562C55.8942 20.243 55.2274 21.4291 54.8566 22.7198C54.8281 22.8348 54.8367 22.9559 54.8812 23.0656C54.9258 23.1753 55.004 23.268 55.1046 23.3303C55.4223 23.5583 55.7321 23.817 56.0659 24.0202C56.3629 24.1564 56.6801 24.2431 57.005 24.2768C57.5358 24.389 58.0673 24.498 58.5994 24.6036C60.5598 24.9928 62.5284 25.3373 64.505 25.6371C68.5048 26.2438 72.5262 26.6711 76.5691 26.9192C84.6683 27.4107 92.7953 27.166 100.85 26.188C105.378 25.6386 109.874 24.8594 114.322 23.8534C114.412 23.827 114.494 23.7777 114.559 23.7104C114.625 23.643 114.672 23.5599 114.696 23.469C114.72 23.3781 114.72 23.2825 114.696 23.1916C114.672 23.1006 114.625 23.0174 114.56 22.9499Z" fill="#E6E6E6"/>
<path d="M59.2686 35.2381C57.4095 34.55 55.4817 34.0646 53.5188 33.7904C53.503 33.7882 53.4881 33.7914 53.4724 33.7901C53.4405 33.7819 53.4081 33.7755 53.3754 33.7711C50.63 33.4206 47.8434 33.5892 45.1601 34.268C43.8479 34.5979 42.5677 35.0448 41.3349 35.6031C40.0978 36.2078 38.8991 36.8885 37.7456 37.6412C35.3042 39.1055 32.6162 40.1102 29.8141 40.6059C28.4076 40.8596 26.9831 40.9997 25.5542 41.0248C24.3143 41.0497 23.1451 41.0929 21.9704 41.5417C20.7156 42.0144 19.5885 42.7745 18.679 43.7613C17.7694 44.748 17.1027 45.9341 16.7319 47.2249C16.7033 47.3398 16.7119 47.4609 16.7565 47.5706C16.801 47.6803 16.8792 47.773 16.9798 47.8353C17.2976 48.0633 17.6073 48.322 17.9412 48.5252C18.2382 48.6614 18.5554 48.7481 18.8803 48.7818C19.4111 48.894 19.9425 49.003 20.4747 49.1086C22.4351 49.4978 24.4036 49.8423 26.3803 50.1421C30.38 50.7488 34.4014 51.1761 38.4444 51.4242C46.5436 51.9157 54.6706 51.671 62.7257 50.693C67.2528 50.1436 71.7491 49.3644 76.1973 48.3584C76.2873 48.332 76.3691 48.2827 76.4345 48.2154C76.5 48.148 76.547 48.0649 76.571 47.974C76.5949 47.8831 76.595 47.7875 76.5713 47.6966C76.5475 47.6056 76.5007 47.5224 76.4354 47.4549C71.5809 42.3525 65.9429 37.6978 59.2686 35.2381Z" fill="#E6E6E6"/>
<path d="M191.548 172.249L177.442 153.682L166.312 159.987L189.898 188.05L191.548 172.249Z" fill="#3F3D56"/>
<path d="M224.042 142.066C224.355 149.847 225.558 157.567 227.628 165.073C227.183 166.121 226.725 167.162 226.251 168.196C224.461 172.111 222.456 175.924 220.246 179.617C214.049 189.99 206.312 199.357 197.303 207.398C196.328 208.267 195.339 209.121 194.337 209.961C188.625 202.071 185.542 193.364 184.323 184.403C184.169 183.266 184.043 182.116 183.947 180.971V180.965C183.713 178.185 183.638 175.394 183.722 172.605C183.725 172.382 183.731 172.157 183.74 171.931C183.848 168.95 184.117 165.963 184.521 163.005V163.001C184.567 162.661 184.614 162.321 184.666 161.981C184.814 160.961 184.981 159.94 185.163 158.926C186.222 153.077 187.701 147.313 189.588 141.677V141.674C189.64 141.51 189.693 141.349 189.752 141.188C189.955 140.576 190.162 139.97 190.375 139.364C190.388 139.316 190.405 139.27 190.424 139.225C190.699 138.433 190.98 137.648 191.267 136.869C191.344 136.652 191.424 136.436 191.507 136.219C191.831 135.351 192.162 134.488 192.498 133.638C192.603 133.366 192.711 133.094 192.819 132.825C192.902 132.617 192.982 132.41 193.069 132.206V132.203C193.56 130.988 194.056 129.797 194.559 128.629C195.97 125.345 197.42 122.257 198.833 119.409L198.836 119.406C204.703 107.616 210.035 99.9609 210.035 99.9609L230.059 106.454C227.671 110.699 225.823 116.96 224.81 124.347C224.031 130.218 223.773 136.146 224.042 142.063L224.042 142.066Z" fill="#3F3D56"/>
<path d="M190.761 140.177C190.643 139.902 190.511 139.633 190.375 139.364C189.671 137.998 188.765 136.747 187.687 135.654C187.527 135.49 187.36 135.326 187.187 135.171C185.328 133.456 183.068 132.238 180.615 131.629C178.162 131.021 175.595 131.042 173.153 131.69L173.14 131.696L173.048 131.721L173.069 131.826C173.162 132.316 173.296 132.797 173.47 133.264C173.517 133.39 173.569 133.511 173.622 133.632C173.643 133.687 173.671 133.737 173.696 133.792C173.696 133.792 173.693 133.795 173.699 133.795C173.699 133.799 173.702 133.802 173.702 133.805C173.761 133.919 173.816 134.037 173.878 134.148C173.751 134.027 173.631 133.904 173.514 133.777C173.399 133.659 173.295 133.536 173.19 133.412C172.83 132.992 172.505 132.543 172.218 132.07L172.168 131.987L172.082 132.021C170.917 132.425 169.806 132.97 168.774 133.644L168.663 133.718C167.874 134.237 166.986 134.584 166.055 134.736C165.124 134.888 164.171 134.843 163.259 134.602C161.821 134.231 160.322 134.163 158.856 134.403C157.39 134.643 155.99 135.186 154.745 135.997C153.92 136.536 153.175 137.187 152.53 137.932C152.474 137.997 152.418 138.065 152.363 138.13C152.246 138.272 152.135 138.418 152.027 138.566C150.867 140.12 150.155 141.962 149.968 143.894L149.962 143.965L150.021 144.005C151.065 144.722 152.246 145.215 153.489 145.452C152.708 145.561 151.917 145.581 151.132 145.511H151.129C150.772 145.481 150.418 145.432 150.067 145.362L150.002 145.35H149.999L149.919 145.334L149.931 145.483C150.023 147.372 150.617 149.202 151.65 150.785L151.681 150.829C151.692 150.844 151.703 150.861 151.712 150.878C152.15 151.549 152.514 152.265 152.798 153.015C153.52 154.876 153.678 156.91 153.255 158.861C152.775 160.949 152.935 163.132 153.712 165.128C154.489 167.123 155.848 168.838 157.612 170.048C159.161 171.116 160.967 171.751 162.843 171.888C163.099 171.909 163.358 171.922 163.617 171.922C165.101 171.926 166.57 171.62 167.928 171.022L167.978 171.003L167.99 170.948C168.251 170.103 168.618 169.294 169.082 168.542C168.93 169.135 168.854 169.745 168.854 170.357V170.561L169.03 170.459C169.181 170.369 169.335 170.274 169.474 170.184C170.308 169.639 171.063 168.981 171.718 168.23C171.974 167.933 172.233 167.645 172.505 167.358L172.508 167.355C173.035 166.792 173.594 166.242 174.174 165.716C175.408 164.605 176.729 163.595 178.124 162.695C179.518 161.799 180.975 161.005 182.484 160.321H182.487C182.657 160.24 182.83 160.163 183 160.089C183.751 159.761 184.475 159.372 185.163 158.926C185.188 158.911 185.209 158.899 185.231 158.883C188.214 156.926 190.407 153.972 191.42 150.546C192.432 147.121 192.199 143.446 190.761 140.177Z" fill="#009281"/>
<path opacity="0.15" d="M153.763 163.251C153.679 163.627 153.615 164.008 153.572 164.39C152.998 162.571 152.914 160.632 153.331 158.77C153.395 158.485 153.443 158.197 153.481 157.908C154.051 159.631 154.149 161.477 153.763 163.251Z" fill="black"/>
<path opacity="0.15" d="M153.997 149.839C153.083 149.967 152.156 149.971 151.24 149.853C151.001 149.4 150.794 148.93 150.621 148.447C151.64 149.136 152.789 149.61 153.997 149.839Z" fill="black"/>
<path opacity="0.15" d="M151.167 145.411C150.83 146.276 150.605 147.181 150.5 148.103C150.218 147.224 150.052 146.313 150.006 145.392L149.998 145.243L150.144 145.271C150.482 145.335 150.824 145.382 151.167 145.411Z" fill="black"/>
<path opacity="0.15" d="M154.825 135.905C156.069 135.093 157.468 134.549 158.933 134.309C160.398 134.069 161.897 134.137 163.334 134.509C164.246 134.751 165.2 134.797 166.131 134.645C167.063 134.493 167.952 134.145 168.74 133.626L168.852 133.552C169.883 132.877 170.994 132.331 172.158 131.925L172.247 131.895L172.296 131.975C172.756 132.738 173.314 133.437 173.955 134.054C173.565 133.328 173.293 132.544 173.147 131.732L173.126 131.625L173.231 131.597C175.522 130.99 177.924 130.933 180.241 131.433C182.558 131.933 184.724 132.974 186.563 134.473C188.402 135.971 189.861 137.883 190.822 140.054C191.783 142.225 192.217 144.593 192.091 146.964C191.605 145.031 190.741 143.213 189.549 141.617C188.356 140.021 186.86 138.678 185.146 137.665C183.432 136.653 181.535 135.991 179.563 135.719C177.592 135.446 175.587 135.568 173.663 136.078L173.558 136.106L173.579 136.213C173.725 137.025 173.998 137.809 174.387 138.535C173.746 137.918 173.188 137.219 172.728 136.456L172.679 136.376L172.59 136.406C171.426 136.812 170.316 137.358 169.284 138.033L169.173 138.107C168.384 138.626 167.495 138.974 166.564 139.126C165.632 139.278 164.679 139.232 163.766 138.99C161.377 138.369 158.848 138.597 156.608 139.636C154.368 140.675 152.558 142.46 151.485 144.687C151.007 144.457 150.544 144.198 150.098 143.911L150.038 143.873L150.045 143.801C150.198 142.21 150.708 140.674 151.535 139.307C152.363 137.939 153.487 136.777 154.825 135.905Z" fill="black"/>
<path d="M269.547 56.9032L269.253 56.7084L269.041 56.9866C267.393 59.0655 266.082 61.3912 265.155 63.8785C265.283 61.0131 265.783 58.1766 266.643 55.4407L266.735 55.1531L266.47 55.0016C263.017 53.0427 259.338 51.5143 255.515 50.4504L255.098 50.3391C252.168 49.5335 249.441 48.1182 247.093 46.1854C244.745 44.2526 242.831 41.8457 241.474 39.1217C238.321 32.8701 233.341 27.7305 227.197 24.3888C221.053 21.047 214.038 19.6621 207.088 20.4188H207.085C207.011 20.425 206.934 20.4343 206.86 20.4436C206.733 20.4559 206.61 20.4714 206.486 20.4869C206.233 20.5209 205.986 20.5549 205.74 20.592C205.53 20.6229 205.317 20.6569 205.107 20.694C204.996 20.7095 204.888 20.728 204.78 20.7497C204.672 20.7682 204.561 20.7868 204.453 20.8084H204.45C202.378 21.2011 200.347 21.7859 198.383 22.5553H198.38V22.5584L197.883 22.7532C197.371 22.9635 196.862 23.1861 196.358 23.4211C196.244 23.4736 196.133 23.5293 196.019 23.5818C195.988 23.5973 195.954 23.6127 195.923 23.6313C195.599 23.7859 195.278 23.9467 194.961 24.1167C194.914 24.1384 194.868 24.1631 194.822 24.1878L194.525 24.3455C193.874 24.698 193.235 25.0721 192.606 25.4679C192.554 25.4988 192.504 25.5297 192.452 25.5637C192.396 25.6008 192.338 25.6379 192.282 25.675C192.248 25.6936 192.214 25.7183 192.18 25.74C192.085 25.7987 191.992 25.8606 191.899 25.9255C191.714 26.0461 191.529 26.1697 191.347 26.2965C191.159 26.4233 190.974 26.5562 190.788 26.6892L190.603 26.8221L190.637 27.0509C190.668 27.2395 190.696 27.4281 190.73 27.6137C190.761 27.7992 190.792 27.9816 190.825 28.164C190.878 28.4701 190.937 28.7731 190.995 29.0668C191.035 29.2616 191.072 29.4533 191.116 29.6419C191.156 29.8367 191.199 30.0315 191.245 30.2263C191.335 30.6283 191.43 31.0178 191.532 31.4012C191.582 31.5929 191.634 31.7846 191.69 31.9732C191.72 32.0876 191.751 32.202 191.785 32.3133C191.81 32.3906 191.835 32.4679 191.859 32.5452C191.865 32.57 191.872 32.5978 191.881 32.6256C191.888 32.6518 191.896 32.6776 191.906 32.7029C191.939 32.8173 191.973 32.9286 192.007 33.0368C192.026 33.0956 192.044 33.1543 192.066 33.21C192.109 33.3429 192.155 33.479 192.202 33.6088C192.251 33.7572 192.304 33.9057 192.356 34.051C192.368 34.0881 192.381 34.1221 192.393 34.1592C192.402 34.187 192.412 34.2148 192.424 34.2427C192.436 34.2736 192.449 34.3076 192.461 34.3385C192.513 34.4777 192.566 34.6199 192.621 34.759C192.64 34.8085 192.659 34.861 192.68 34.9105C193.18 36.1701 193.795 37.381 194.516 38.528C193.717 37.8416 192.948 37.114 192.208 36.3452C191.066 35.1564 190.014 33.8842 189.06 32.539C188.983 32.4339 188.906 32.3257 188.835 32.2175C188.69 32.0103 188.548 31.8032 188.409 31.5929C188.261 31.3765 188.119 31.1508 187.98 30.9282C187.888 30.7798 187.795 30.6282 187.706 30.4798C187.616 30.3376 187.533 30.1985 187.453 30.0563L187.212 29.6419H187.209V29.645L186.869 29.9789C186.734 30.1119 186.598 30.2449 186.465 30.3778C182.318 34.559 179.313 39.7391 177.741 45.4198L177.695 45.5899L177.649 45.7661C177.559 46.0815 177.47 46.3876 177.374 46.6999V46.703C177.282 47.0122 177.183 47.3214 177.078 47.6244C176.982 47.9119 176.883 48.1964 176.779 48.4808C176.745 48.5767 176.708 48.6725 176.667 48.7684C176.603 48.9539 176.532 49.1363 176.461 49.3218C176.427 49.4053 176.393 49.4919 176.359 49.5753C176.276 49.7794 176.192 49.9835 176.109 50.1844C176.097 50.2154 176.081 50.2494 176.066 50.2803C176.041 50.3421 176.013 50.404 175.989 50.4627C175.924 50.6111 175.856 50.7626 175.791 50.911C175.745 51.0069 175.702 51.1058 175.658 51.2017C175.64 51.245 175.618 51.2883 175.6 51.3315C175.486 51.5789 175.368 51.8231 175.245 52.0643C175.106 52.3488 174.964 52.6332 174.813 52.9115C174.68 53.1712 174.541 53.4248 174.396 53.6783C174.146 54.1266 173.884 54.5719 173.612 55.0047C173.507 55.1717 173.403 55.3386 173.295 55.5056C173.27 55.5458 173.245 55.586 173.22 55.6231C173.131 55.7684 173.038 55.9076 172.943 56.0498C172.878 56.1456 172.813 56.2415 172.748 56.3342C172.64 56.5012 172.526 56.662 172.409 56.8197C172.378 56.8691 172.344 56.9155 172.31 56.9619C172.137 57.2031 171.965 57.438 171.789 57.673C171.782 57.6761 171.782 57.6792 171.779 57.6823C171.773 57.6823 171.773 57.6854 171.77 57.6885C171.693 57.7905 171.616 57.8926 171.536 57.9915C171.431 58.1368 171.316 58.279 171.202 58.4182C171.017 58.6532 170.823 58.8912 170.625 59.1231C170.619 59.1293 170.616 59.1355 170.61 59.1386C169.587 60.3423 168.48 61.4706 167.296 62.5149C167.274 62.5335 167.259 62.552 167.237 62.5675C167.07 62.7128 166.904 62.8581 166.731 63.0004C166.66 63.0591 166.589 63.1179 166.518 63.1766C166.401 63.2755 166.28 63.3745 166.163 63.4641C166.149 63.4783 166.134 63.4908 166.117 63.5012C166.012 63.5878 165.91 63.6682 165.805 63.7486C165.679 63.8506 165.552 63.9465 165.422 64.0423C164.811 64.5061 164.184 64.9441 163.54 65.3564C163.444 65.4213 163.343 65.4862 163.244 65.5481C163.185 65.5852 163.127 65.6223 163.071 65.6532C162.836 65.7985 162.602 65.9408 162.367 66.0768C162.133 66.2159 161.892 66.3489 161.655 66.4787C161.145 66.757 160.642 67.0476 160.152 67.3507C159.905 67.5052 159.658 67.6598 159.414 67.8175C158.445 68.4483 157.512 69.1233 156.615 69.8427C155.718 70.5625 154.858 71.3272 154.039 72.1338C153.937 72.2327 153.835 72.3348 153.733 72.4399C153.529 72.6409 153.332 72.8449 153.144 73.049C152.841 73.3613 152.551 73.6828 152.264 74.0075C150.751 75.7279 149.411 77.5942 148.265 79.5791C147.689 80.5702 147.166 81.5909 146.697 82.6369C146.342 83.4192 146.018 84.22 145.725 85.0301C145.531 85.5712 145.349 86.1174 145.179 86.6688C145.096 86.9439 145.015 87.2222 144.938 87.5005C144.676 88.4435 144.457 89.3958 144.278 90.3512C144.133 91.118 144.016 91.8858 143.926 92.6547C143.88 93.0412 143.843 93.4277 143.809 93.811C143.729 94.7534 143.689 95.6966 143.687 96.6408C143.682 99.4733 144.025 102.296 144.71 105.044C144.861 105.65 145.029 106.253 145.213 106.853C145.305 107.153 145.404 107.449 145.503 107.746C145.753 108.488 146.03 109.223 146.333 109.951C146.515 110.387 146.706 110.82 146.907 111.249C148.182 113.982 149.809 116.534 151.746 118.843C152.064 119.223 152.392 119.597 152.73 119.965C152.733 119.965 152.73 119.968 152.73 119.968C153.57 120.886 154.459 121.757 155.393 122.578H155.396C155.77 122.909 156.149 123.229 156.535 123.54C156.538 123.536 156.538 123.54 156.538 123.54C156.927 123.855 157.319 124.158 157.72 124.452C157.921 124.597 158.124 124.742 158.331 124.888C158.735 125.175 159.148 125.452 159.568 125.719H159.572C159.991 125.991 160.417 126.251 160.849 126.499C161.716 126.996 162.605 127.463 163.518 127.887L163.673 127.958L163.83 127.887C165.295 127.226 166.804 126.672 168.348 126.226C168.687 126.127 169.03 126.038 169.369 125.951C170.227 125.738 171.091 125.559 171.961 125.413C171.114 125.839 170.295 126.322 169.511 126.857C168.903 127.268 168.305 127.717 167.703 128.211C167.502 128.375 167.302 128.545 167.101 128.718L166.601 129.151L167.228 129.359C167.456 129.433 167.684 129.507 167.913 129.575C168.224 129.674 168.533 129.764 168.835 129.847C169.496 130.033 170.16 130.196 170.829 130.339C170.992 130.373 171.153 130.407 171.316 130.441C171.634 130.503 171.955 130.564 172.276 130.62C172.289 130.623 172.303 130.625 172.316 130.626C172.65 130.682 172.986 130.734 173.319 130.781C173.939 130.87 174.56 130.942 175.18 130.994C175.248 131.003 175.316 131.007 175.387 131.01C175.538 131.022 175.686 131.034 175.837 131.044C176.171 131.065 176.507 131.081 176.843 131.093C176.868 131.093 176.89 131.096 176.914 131.096C177.084 131.102 177.254 131.109 177.423 131.112C177.423 131.112 177.423 131.115 177.427 131.112C177.596 131.115 177.766 131.118 177.936 131.118H178.874C179.05 131.118 179.226 131.121 179.405 131.121C179.651 131.121 179.901 131.124 180.148 131.127C180.213 131.127 180.281 131.13 180.349 131.13C180.744 131.136 181.139 131.146 181.534 131.155C181.559 131.155 181.583 131.158 181.608 131.158C182.003 131.17 182.398 131.183 182.793 131.201C182.879 131.204 182.966 131.207 183.055 131.214C183.435 131.229 183.814 131.248 184.194 131.269C184.302 131.275 184.413 131.285 184.524 131.291C184.811 131.306 185.101 131.325 185.388 131.347C185.558 131.356 185.725 131.368 185.894 131.384C186.579 131.436 187.261 131.495 187.946 131.563C188.175 131.582 188.403 131.606 188.631 131.631C189.242 131.696 189.855 131.767 190.471 131.844C190.745 131.875 191.02 131.912 191.295 131.95C191.325 131.953 191.356 131.956 191.387 131.962C191.727 132.008 192.063 132.055 192.402 132.104C192.625 132.135 192.847 132.169 193.069 132.203C193.297 132.237 193.526 132.271 193.754 132.311C193.877 132.33 194.001 132.351 194.127 132.373C194.424 132.419 194.723 132.469 195.022 132.525C195.049 132.527 195.076 132.531 195.103 132.537C195.738 132.648 196.377 132.766 197.013 132.893C197.386 132.964 197.756 133.038 198.127 133.115C198.417 133.174 198.707 133.236 198.997 133.298C199.046 133.307 199.096 133.319 199.145 133.332C199.156 133.335 199.168 133.337 199.179 133.338C199.617 133.434 200.058 133.533 200.497 133.638C202.018 133.99 203.537 134.382 205.055 134.813C205.403 134.908 205.752 135.01 206.101 135.113C206.249 135.156 206.394 135.199 206.539 135.242C206.841 135.332 207.141 135.422 207.443 135.518C207.708 135.598 207.977 135.681 208.242 135.768C208.409 135.821 208.576 135.873 208.742 135.929C209.001 136.009 209.261 136.093 209.517 136.182C209.736 136.25 209.952 136.321 210.168 136.399C210.476 136.501 210.788 136.606 211.097 136.717C211.186 136.748 211.279 136.779 211.368 136.813C211.745 136.943 212.121 137.076 212.498 137.215C212.865 137.348 213.232 137.484 213.596 137.62C213.849 137.716 214.102 137.809 214.352 137.908C214.633 138.016 214.914 138.124 215.192 138.235C215.593 138.393 215.997 138.554 216.398 138.718C216.769 138.866 217.136 139.018 217.506 139.175C217.574 139.203 217.645 139.231 217.713 139.262C218.034 139.395 218.355 139.534 218.673 139.673C218.879 139.76 219.083 139.849 219.287 139.939C220.175 140.329 221.063 140.732 221.95 141.148H221.953C222.508 141.411 223.073 141.661 223.641 141.899C223.774 141.955 223.906 142.011 224.042 142.063C224.267 142.159 224.496 142.249 224.724 142.341C224.872 142.4 225.02 142.459 225.171 142.515C225.391 142.601 225.613 142.685 225.835 142.765C226.069 142.852 226.301 142.938 226.539 143.019C226.622 143.049 226.705 143.077 226.792 143.108C227.066 143.201 227.341 143.294 227.619 143.383C227.646 143.393 227.674 143.402 227.705 143.411C227.995 143.504 228.285 143.597 228.578 143.683C228.602 143.692 228.625 143.699 228.649 143.705C228.964 143.801 229.285 143.894 229.603 143.983C230.072 144.113 230.544 144.237 231.016 144.351C231.103 144.373 231.189 144.394 231.275 144.413C231.528 144.475 231.778 144.534 232.031 144.589C232.3 144.651 232.571 144.707 232.84 144.762C233.111 144.818 233.383 144.874 233.652 144.923C233.797 144.951 233.942 144.979 234.084 145.004L234.463 145.068C234.725 145.115 234.988 145.155 235.253 145.198C235.26 145.198 235.268 145.199 235.275 145.201C235.574 145.248 235.87 145.291 236.17 145.328C236.457 145.368 236.744 145.402 237.031 145.436C237.089 145.443 237.151 145.449 237.213 145.455C237.45 145.483 237.688 145.511 237.925 145.532C237.993 145.538 238.061 145.545 238.129 145.551C238.364 145.572 238.598 145.594 238.833 145.61C238.88 145.616 238.927 145.619 238.975 145.619C239.185 145.637 239.394 145.653 239.604 145.662C239.752 145.674 239.897 145.681 240.046 145.69C240.123 145.693 240.197 145.696 240.274 145.699C240.478 145.712 240.681 145.718 240.888 145.724C241.138 145.733 241.388 145.739 241.635 145.746C241.934 145.752 242.236 145.755 242.536 145.755H242.542C242.835 145.755 243.131 145.752 243.425 145.746H243.536L243.86 145.736C244.026 145.733 244.193 145.727 244.357 145.721C244.671 145.708 244.983 145.693 245.295 145.674C245.418 145.668 245.545 145.659 245.668 145.653C245.724 145.65 245.782 145.644 245.838 145.64C246.032 145.628 246.224 145.616 246.418 145.6C246.618 145.585 246.822 145.566 247.023 145.545C247.282 145.52 247.541 145.492 247.8 145.464C248.004 145.443 248.208 145.418 248.408 145.393C248.435 145.391 248.462 145.387 248.489 145.381C248.683 145.359 248.877 145.334 249.069 145.307C249.297 145.276 249.522 145.242 249.748 145.208C249.772 145.204 249.794 145.201 249.819 145.198C250.207 145.136 250.599 145.075 250.991 145.004C251.402 144.929 251.812 144.849 252.219 144.765C252.371 144.735 252.519 144.701 252.67 144.67C252.753 144.651 252.84 144.636 252.92 144.617C253.046 144.589 253.17 144.561 253.293 144.53C253.315 144.527 253.34 144.521 253.361 144.518C253.534 144.481 253.704 144.438 253.877 144.394C254.222 144.311 254.562 144.224 254.901 144.132C255.052 144.095 255.203 144.054 255.348 144.014C255.392 144.002 255.435 143.989 255.475 143.977C256.101 143.801 256.723 143.614 257.339 143.417C257.61 143.331 257.879 143.241 258.147 143.145C258.724 142.947 259.296 142.739 259.863 142.521C260.014 142.465 260.166 142.403 260.317 142.345C260.539 142.255 260.761 142.165 260.98 142.076C261.178 141.992 261.375 141.909 261.576 141.822C261.675 141.782 261.773 141.738 261.872 141.695C262.168 141.565 262.465 141.432 262.758 141.299C262.955 141.207 263.15 141.117 263.344 141.024C263.653 140.876 263.958 140.724 264.264 140.573C264.341 140.533 264.415 140.492 264.489 140.455C264.683 140.356 264.878 140.254 265.075 140.155C265.387 139.988 265.699 139.822 266.007 139.648C266.112 139.593 266.214 139.534 266.319 139.475C266.658 139.284 266.995 139.089 267.328 138.891C268.065 138.449 268.793 137.987 269.51 137.506C269.689 137.388 269.868 137.265 270.044 137.144C270.377 136.915 270.704 136.68 271.031 136.445C271.065 136.42 271.096 136.396 271.13 136.374C271.293 136.253 271.457 136.133 271.62 136.009C271.96 135.753 272.296 135.493 272.633 135.227C272.639 135.224 272.648 135.215 272.657 135.208C272.809 135.088 272.96 134.967 273.108 134.847C273.568 134.473 274.021 134.092 274.466 133.7C274.685 133.511 274.901 133.316 275.114 133.121C275.274 132.976 275.435 132.831 275.592 132.682C275.91 132.382 276.221 132.086 276.53 131.783C276.684 131.634 276.836 131.48 276.99 131.325C277.141 131.17 277.295 131.016 277.447 130.858C277.499 130.806 277.551 130.75 277.604 130.694C277.758 130.53 277.913 130.363 278.067 130.2C278.2 130.057 278.329 129.909 278.462 129.76C278.684 129.513 278.909 129.266 279.128 129.015C279.14 129.001 279.152 128.988 279.165 128.975C279.178 128.96 279.19 128.947 279.199 128.935H279.196C283.682 123.738 287.014 117.646 288.974 111.062C290.934 104.477 291.475 97.5512 290.563 90.7416C289.651 83.932 287.305 77.3941 283.682 71.5606C280.059 65.7272 275.241 60.7311 269.547 56.9032Z" fill="#009281"/>
<g opacity="0.15">
<path d="M207.086 20.4164C207.701 22.6303 208.626 24.7456 209.834 26.6991C207.812 24.9582 206.005 22.9809 204.452 20.8093C205.324 20.644 206.202 20.513 207.086 20.4164Z" fill="black"/>
<path d="M176.974 54.6551C174.69 55.904 172.555 57.408 170.609 59.1384C173.895 55.2451 176.296 50.6822 177.647 45.7662C177.664 45.7071 177.68 45.6477 177.696 45.5885L177.742 45.4212C179.365 39.5539 182.514 34.2238 186.868 29.9761L187.21 29.642L187.452 30.0549C188.786 32.3286 190.383 34.437 192.21 36.3366C189.411 44.2499 183.964 50.836 176.974 54.6551Z" fill="black"/>
<path d="M193.061 33.5946L193.015 33.762C192.999 33.8211 192.982 33.8806 192.966 33.9396C192.876 34.265 192.78 34.5879 192.681 34.9094C191.705 32.376 191.019 29.7396 190.638 27.051L190.602 26.8229L190.789 26.6888C193.137 24.9982 195.688 23.6091 198.381 22.5539C195.963 25.8859 194.161 29.6253 193.061 33.5946Z" fill="black"/>
<path d="M161.656 66.4816C163.677 65.3731 165.569 64.0426 167.296 62.5145C163.845 66.5397 161.372 71.3109 160.07 76.454C158.767 81.5972 158.671 86.9727 159.789 92.1593C160.907 97.3459 163.208 102.203 166.512 106.349C169.817 110.496 174.035 113.819 178.836 116.059L178.992 116.131L179.147 116.061C181.741 114.887 184.475 114.055 187.281 113.586C185.529 114.48 183.896 115.591 182.421 116.892L181.921 117.325L182.548 117.532C183.088 117.711 183.629 117.876 184.155 118.022C187.243 118.884 190.436 119.312 193.642 119.294C208.208 119.2 222.887 122.574 237.271 129.322C239.737 130.478 242.296 131.425 244.92 132.155C256.355 135.345 268.562 134.197 279.205 128.932C273.205 135.885 265.359 140.99 256.578 143.654C247.798 146.318 238.443 146.431 229.601 143.981C226.977 143.252 224.419 142.304 221.952 141.149C207.568 134.401 192.889 131.027 178.323 131.12C175.117 131.138 171.924 130.71 168.836 129.849C168.31 129.702 167.77 129.538 167.229 129.358L166.603 129.151L167.102 128.719C168.578 127.417 170.211 126.307 171.962 125.412C169.156 125.882 166.422 126.713 163.829 127.887L163.673 127.958L163.517 127.885C157.752 125.197 152.846 120.956 149.346 115.636C145.846 110.316 143.891 104.127 143.698 97.7583C143.505 91.3898 145.082 85.0928 148.253 79.57C151.424 74.0472 156.064 69.5159 161.656 66.4816Z" fill="black"/>
</g>
</g>
<defs>
<clipPath id="clip0_20_524">
<rect width="291" height="246" fill="white"/>
</clipPath>
</defs>
</svg>
